<mxfile host="app.diagrams.net" modified="2023-04-17T08:46:20.571Z" agent="Mozilla/5.0 (Macintosh; Intel Mac OS X 10_15_7) AppleWebKit/537.36 (KHTML, like Gecko) Chrome/112.0.0.0 Safari/537.36" etag="1UXg6rhjF5COrDhbcb33" version="21.1.5" type="github">
  <diagram id="rLH_tqqhX4yEtM2bNSTy" name="第 1 页">
    <mxGraphModel dx="1224" dy="785" grid="0" gridSize="10" guides="1" tooltips="1" connect="1" arrows="1" fold="1" page="0" pageScale="1" pageWidth="827" pageHeight="1169" math="0" shadow="0">
      <root>
        <mxCell id="0" />
        <mxCell id="1" parent="0" />
        <mxCell id="S7Eitos9PWXYoLyS1NVI-33" value="" style="shape=table;startSize=0;container=1;collapsible=0;childLayout=tableLayout;" parent="1" vertex="1">
          <mxGeometry x="40" y="80" width="80" height="280" as="geometry" />
        </mxCell>
        <mxCell id="S7Eitos9PWXYoLyS1NVI-34" value="" style="shape=tableRow;horizontal=0;startSize=0;swimlaneHead=0;swimlaneBody=0;top=0;left=0;bottom=0;right=0;collapsible=0;dropTarget=0;fillColor=none;points=[[0,0.5],[1,0.5]];portConstraint=eastwest;" parent="S7Eitos9PWXYoLyS1NVI-33" vertex="1">
          <mxGeometry width="80" height="40" as="geometry" />
        </mxCell>
        <mxCell id="S7Eitos9PWXYoLyS1NVI-35" value="Slot" style="shape=partialRectangle;html=1;whiteSpace=wrap;connectable=0;overflow=hidden;fillColor=none;top=0;left=0;bottom=0;right=0;pointerEvents=1;" parent="S7Eitos9PWXYoLyS1NVI-34" vertex="1">
          <mxGeometry width="40" height="40" as="geometry">
            <mxRectangle width="40" height="40" as="alternateBounds" />
          </mxGeometry>
        </mxCell>
        <mxCell id="S7Eitos9PWXYoLyS1NVI-36" value="Next" style="shape=partialRectangle;html=1;whiteSpace=wrap;connectable=0;overflow=hidden;fillColor=none;top=0;left=0;bottom=0;right=0;pointerEvents=1;" parent="S7Eitos9PWXYoLyS1NVI-34" vertex="1">
          <mxGeometry x="40" width="40" height="40" as="geometry">
            <mxRectangle width="40" height="40" as="alternateBounds" />
          </mxGeometry>
        </mxCell>
        <mxCell id="S7Eitos9PWXYoLyS1NVI-37" value="" style="shape=tableRow;horizontal=0;startSize=0;swimlaneHead=0;swimlaneBody=0;top=0;left=0;bottom=0;right=0;collapsible=0;dropTarget=0;fillColor=none;points=[[0,0.5],[1,0.5]];portConstraint=eastwest;" parent="S7Eitos9PWXYoLyS1NVI-33" vertex="1">
          <mxGeometry y="40" width="80" height="40" as="geometry" />
        </mxCell>
        <mxCell id="S7Eitos9PWXYoLyS1NVI-38" value="0" style="shape=partialRectangle;html=1;whiteSpace=wrap;connectable=0;overflow=hidden;fillColor=none;top=0;left=0;bottom=0;right=0;pointerEvents=1;" parent="S7Eitos9PWXYoLyS1NVI-37" vertex="1">
          <mxGeometry width="40" height="40" as="geometry">
            <mxRectangle width="40" height="40" as="alternateBounds" />
          </mxGeometry>
        </mxCell>
        <mxCell id="S7Eitos9PWXYoLyS1NVI-39" value="1" style="shape=partialRectangle;html=1;whiteSpace=wrap;connectable=0;overflow=hidden;fillColor=none;top=0;left=0;bottom=0;right=0;pointerEvents=1;" parent="S7Eitos9PWXYoLyS1NVI-37" vertex="1">
          <mxGeometry x="40" width="40" height="40" as="geometry">
            <mxRectangle width="40" height="40" as="alternateBounds" />
          </mxGeometry>
        </mxCell>
        <mxCell id="S7Eitos9PWXYoLyS1NVI-40" value="" style="shape=tableRow;horizontal=0;startSize=0;swimlaneHead=0;swimlaneBody=0;top=0;left=0;bottom=0;right=0;collapsible=0;dropTarget=0;fillColor=none;points=[[0,0.5],[1,0.5]];portConstraint=eastwest;" parent="S7Eitos9PWXYoLyS1NVI-33" vertex="1">
          <mxGeometry y="80" width="80" height="40" as="geometry" />
        </mxCell>
        <mxCell id="S7Eitos9PWXYoLyS1NVI-41" value="1" style="shape=partialRectangle;html=1;whiteSpace=wrap;connectable=0;overflow=hidden;fillColor=none;top=0;left=0;bottom=0;right=0;pointerEvents=1;" parent="S7Eitos9PWXYoLyS1NVI-40" vertex="1">
          <mxGeometry width="40" height="40" as="geometry">
            <mxRectangle width="40" height="40" as="alternateBounds" />
          </mxGeometry>
        </mxCell>
        <mxCell id="S7Eitos9PWXYoLyS1NVI-42" value="2" style="shape=partialRectangle;html=1;whiteSpace=wrap;connectable=0;overflow=hidden;fillColor=none;top=0;left=0;bottom=0;right=0;pointerEvents=1;" parent="S7Eitos9PWXYoLyS1NVI-40" vertex="1">
          <mxGeometry x="40" width="40" height="40" as="geometry">
            <mxRectangle width="40" height="40" as="alternateBounds" />
          </mxGeometry>
        </mxCell>
        <mxCell id="S7Eitos9PWXYoLyS1NVI-43" value="" style="shape=tableRow;horizontal=0;startSize=0;swimlaneHead=0;swimlaneBody=0;top=0;left=0;bottom=0;right=0;collapsible=0;dropTarget=0;fillColor=none;points=[[0,0.5],[1,0.5]];portConstraint=eastwest;" parent="S7Eitos9PWXYoLyS1NVI-33" vertex="1">
          <mxGeometry y="120" width="80" height="40" as="geometry" />
        </mxCell>
        <mxCell id="S7Eitos9PWXYoLyS1NVI-44" value="2" style="shape=partialRectangle;html=1;whiteSpace=wrap;connectable=0;overflow=hidden;fillColor=none;top=0;left=0;bottom=0;right=0;pointerEvents=1;" parent="S7Eitos9PWXYoLyS1NVI-43" vertex="1">
          <mxGeometry width="40" height="40" as="geometry">
            <mxRectangle width="40" height="40" as="alternateBounds" />
          </mxGeometry>
        </mxCell>
        <mxCell id="S7Eitos9PWXYoLyS1NVI-45" value="3" style="shape=partialRectangle;html=1;whiteSpace=wrap;connectable=0;overflow=hidden;fillColor=none;top=0;left=0;bottom=0;right=0;pointerEvents=1;" parent="S7Eitos9PWXYoLyS1NVI-43" vertex="1">
          <mxGeometry x="40" width="40" height="40" as="geometry">
            <mxRectangle width="40" height="40" as="alternateBounds" />
          </mxGeometry>
        </mxCell>
        <mxCell id="S7Eitos9PWXYoLyS1NVI-46" value="" style="shape=tableRow;horizontal=0;startSize=0;swimlaneHead=0;swimlaneBody=0;top=0;left=0;bottom=0;right=0;collapsible=0;dropTarget=0;fillColor=none;points=[[0,0.5],[1,0.5]];portConstraint=eastwest;" parent="S7Eitos9PWXYoLyS1NVI-33" vertex="1">
          <mxGeometry y="160" width="80" height="40" as="geometry" />
        </mxCell>
        <mxCell id="S7Eitos9PWXYoLyS1NVI-47" value="3" style="shape=partialRectangle;html=1;whiteSpace=wrap;connectable=0;overflow=hidden;fillColor=none;top=0;left=0;bottom=0;right=0;pointerEvents=1;" parent="S7Eitos9PWXYoLyS1NVI-46" vertex="1">
          <mxGeometry width="40" height="40" as="geometry">
            <mxRectangle width="40" height="40" as="alternateBounds" />
          </mxGeometry>
        </mxCell>
        <mxCell id="S7Eitos9PWXYoLyS1NVI-48" value="4" style="shape=partialRectangle;html=1;whiteSpace=wrap;connectable=0;overflow=hidden;fillColor=none;top=0;left=0;bottom=0;right=0;pointerEvents=1;" parent="S7Eitos9PWXYoLyS1NVI-46" vertex="1">
          <mxGeometry x="40" width="40" height="40" as="geometry">
            <mxRectangle width="40" height="40" as="alternateBounds" />
          </mxGeometry>
        </mxCell>
        <mxCell id="S7Eitos9PWXYoLyS1NVI-49" value="" style="shape=tableRow;horizontal=0;startSize=0;swimlaneHead=0;swimlaneBody=0;top=0;left=0;bottom=0;right=0;collapsible=0;dropTarget=0;fillColor=none;points=[[0,0.5],[1,0.5]];portConstraint=eastwest;" parent="S7Eitos9PWXYoLyS1NVI-33" vertex="1">
          <mxGeometry y="200" width="80" height="40" as="geometry" />
        </mxCell>
        <mxCell id="S7Eitos9PWXYoLyS1NVI-50" value="4" style="shape=partialRectangle;html=1;whiteSpace=wrap;connectable=0;overflow=hidden;fillColor=none;top=0;left=0;bottom=0;right=0;pointerEvents=1;" parent="S7Eitos9PWXYoLyS1NVI-49" vertex="1">
          <mxGeometry width="40" height="40" as="geometry">
            <mxRectangle width="40" height="40" as="alternateBounds" />
          </mxGeometry>
        </mxCell>
        <mxCell id="S7Eitos9PWXYoLyS1NVI-51" value="5" style="shape=partialRectangle;html=1;whiteSpace=wrap;connectable=0;overflow=hidden;fillColor=none;top=0;left=0;bottom=0;right=0;pointerEvents=1;" parent="S7Eitos9PWXYoLyS1NVI-49" vertex="1">
          <mxGeometry x="40" width="40" height="40" as="geometry">
            <mxRectangle width="40" height="40" as="alternateBounds" />
          </mxGeometry>
        </mxCell>
        <mxCell id="S7Eitos9PWXYoLyS1NVI-52" value="" style="shape=tableRow;horizontal=0;startSize=0;swimlaneHead=0;swimlaneBody=0;top=0;left=0;bottom=0;right=0;collapsible=0;dropTarget=0;fillColor=none;points=[[0,0.5],[1,0.5]];portConstraint=eastwest;" parent="S7Eitos9PWXYoLyS1NVI-33" vertex="1">
          <mxGeometry y="240" width="80" height="40" as="geometry" />
        </mxCell>
        <mxCell id="S7Eitos9PWXYoLyS1NVI-53" value="5" style="shape=partialRectangle;html=1;whiteSpace=wrap;connectable=0;overflow=hidden;fillColor=none;top=0;left=0;bottom=0;right=0;pointerEvents=1;" parent="S7Eitos9PWXYoLyS1NVI-52" vertex="1">
          <mxGeometry width="40" height="40" as="geometry">
            <mxRectangle width="40" height="40" as="alternateBounds" />
          </mxGeometry>
        </mxCell>
        <mxCell id="S7Eitos9PWXYoLyS1NVI-54" value="0" style="shape=partialRectangle;html=1;whiteSpace=wrap;connectable=0;overflow=hidden;fillColor=none;top=0;left=0;bottom=0;right=0;pointerEvents=1;" parent="S7Eitos9PWXYoLyS1NVI-52" vertex="1">
          <mxGeometry x="40" width="40" height="40" as="geometry">
            <mxRectangle width="40" height="40" as="alternateBounds" />
          </mxGeometry>
        </mxCell>
        <mxCell id="S7Eitos9PWXYoLyS1NVI-107" value="CA" style="text;html=1;align=center;verticalAlign=middle;resizable=0;points=[];autosize=1;strokeColor=none;fillColor=none;" parent="1" vertex="1">
          <mxGeometry x="145" y="190" width="30" height="20" as="geometry" />
        </mxCell>
        <mxCell id="S7Eitos9PWXYoLyS1NVI-219" value="CA" style="text;html=1;align=center;verticalAlign=middle;resizable=0;points=[];autosize=1;strokeColor=none;fillColor=none;" parent="1" vertex="1">
          <mxGeometry x="305" y="190" width="30" height="20" as="geometry" />
        </mxCell>
        <mxCell id="S7Eitos9PWXYoLyS1NVI-220" value="CA" style="text;html=1;align=center;verticalAlign=middle;resizable=0;points=[];autosize=1;strokeColor=none;fillColor=none;" parent="1" vertex="1">
          <mxGeometry x="465" y="190" width="30" height="20" as="geometry" />
        </mxCell>
        <mxCell id="S7Eitos9PWXYoLyS1NVI-221" value="CA" style="text;html=1;align=center;verticalAlign=middle;resizable=0;points=[];autosize=1;strokeColor=none;fillColor=none;" parent="1" vertex="1">
          <mxGeometry x="625" y="190" width="30" height="20" as="geometry" />
        </mxCell>
        <mxCell id="S7Eitos9PWXYoLyS1NVI-259" value="" style="shape=singleArrow;whiteSpace=wrap;html=1;fontColor=#FF0000;arrowWidth=0.25769230769231993;arrowSize=0.4076923076923151;" parent="1" vertex="1">
          <mxGeometry x="140" y="210" width="40" height="20" as="geometry" />
        </mxCell>
        <mxCell id="S7Eitos9PWXYoLyS1NVI-263" value="" style="shape=singleArrow;whiteSpace=wrap;html=1;fontColor=#FF0000;arrowWidth=0.25769230769231993;arrowSize=0.4076923076923151;" parent="1" vertex="1">
          <mxGeometry x="620" y="210" width="40" height="20" as="geometry" />
        </mxCell>
        <mxCell id="S7Eitos9PWXYoLyS1NVI-264" value="" style="shape=singleArrow;whiteSpace=wrap;html=1;fontColor=#FF0000;arrowWidth=0.25769230769231993;arrowSize=0.4076923076923151;" parent="1" vertex="1">
          <mxGeometry x="460" y="210" width="40" height="20" as="geometry" />
        </mxCell>
        <mxCell id="S7Eitos9PWXYoLyS1NVI-265" value="" style="shape=singleArrow;whiteSpace=wrap;html=1;fontColor=#FF0000;arrowWidth=0.25769230769231993;arrowSize=0.4076923076923151;" parent="1" vertex="1">
          <mxGeometry x="300" y="210" width="40" height="20" as="geometry" />
        </mxCell>
        <mxCell id="S7Eitos9PWXYoLyS1NVI-266" value="" style="shape=singleArrow;whiteSpace=wrap;html=1;fontColor=#FF0000;arrowWidth=0.25769230769231993;arrowSize=0.4076923076923151;direction=south;" parent="1" vertex="1">
          <mxGeometry x="710" y="380" width="20" height="40" as="geometry" />
        </mxCell>
        <mxCell id="S7Eitos9PWXYoLyS1NVI-267" value="" style="shape=table;startSize=0;container=1;collapsible=0;childLayout=tableLayout;" parent="1" vertex="1">
          <mxGeometry x="360" y="80" width="80" height="280" as="geometry" />
        </mxCell>
        <mxCell id="S7Eitos9PWXYoLyS1NVI-268" value="" style="shape=tableRow;horizontal=0;startSize=0;swimlaneHead=0;swimlaneBody=0;top=0;left=0;bottom=0;right=0;collapsible=0;dropTarget=0;fillColor=none;points=[[0,0.5],[1,0.5]];portConstraint=eastwest;" parent="S7Eitos9PWXYoLyS1NVI-267" vertex="1">
          <mxGeometry width="80" height="40" as="geometry" />
        </mxCell>
        <mxCell id="S7Eitos9PWXYoLyS1NVI-269" value="Slot" style="shape=partialRectangle;html=1;whiteSpace=wrap;connectable=0;overflow=hidden;fillColor=none;top=0;left=0;bottom=0;right=0;pointerEvents=1;" parent="S7Eitos9PWXYoLyS1NVI-268" vertex="1">
          <mxGeometry width="40" height="40" as="geometry">
            <mxRectangle width="40" height="40" as="alternateBounds" />
          </mxGeometry>
        </mxCell>
        <mxCell id="S7Eitos9PWXYoLyS1NVI-270" value="Next" style="shape=partialRectangle;html=1;whiteSpace=wrap;connectable=0;overflow=hidden;fillColor=none;top=0;left=0;bottom=0;right=0;pointerEvents=1;" parent="S7Eitos9PWXYoLyS1NVI-268" vertex="1">
          <mxGeometry x="40" width="40" height="40" as="geometry">
            <mxRectangle width="40" height="40" as="alternateBounds" />
          </mxGeometry>
        </mxCell>
        <mxCell id="S7Eitos9PWXYoLyS1NVI-271" value="" style="shape=tableRow;horizontal=0;startSize=0;swimlaneHead=0;swimlaneBody=0;top=0;left=0;bottom=0;right=0;collapsible=0;dropTarget=0;fillColor=none;points=[[0,0.5],[1,0.5]];portConstraint=eastwest;" parent="S7Eitos9PWXYoLyS1NVI-267" vertex="1">
          <mxGeometry y="40" width="80" height="40" as="geometry" />
        </mxCell>
        <mxCell id="S7Eitos9PWXYoLyS1NVI-272" value="0" style="shape=partialRectangle;html=1;whiteSpace=wrap;connectable=0;overflow=hidden;fillColor=none;top=0;left=0;bottom=0;right=0;pointerEvents=1;" parent="S7Eitos9PWXYoLyS1NVI-271" vertex="1">
          <mxGeometry width="40" height="40" as="geometry">
            <mxRectangle width="40" height="40" as="alternateBounds" />
          </mxGeometry>
        </mxCell>
        <mxCell id="S7Eitos9PWXYoLyS1NVI-273" value="&lt;font color=&quot;#ff0000&quot;&gt;3&lt;/font&gt;" style="shape=partialRectangle;html=1;whiteSpace=wrap;connectable=0;overflow=hidden;fillColor=none;top=0;left=0;bottom=0;right=0;pointerEvents=1;" parent="S7Eitos9PWXYoLyS1NVI-271" vertex="1">
          <mxGeometry x="40" width="40" height="40" as="geometry">
            <mxRectangle width="40" height="40" as="alternateBounds" />
          </mxGeometry>
        </mxCell>
        <mxCell id="S7Eitos9PWXYoLyS1NVI-274" value="" style="shape=tableRow;horizontal=0;startSize=0;swimlaneHead=0;swimlaneBody=0;top=0;left=0;bottom=0;right=0;collapsible=0;dropTarget=0;fillColor=none;points=[[0,0.5],[1,0.5]];portConstraint=eastwest;" parent="S7Eitos9PWXYoLyS1NVI-267" vertex="1">
          <mxGeometry y="80" width="80" height="40" as="geometry" />
        </mxCell>
        <mxCell id="S7Eitos9PWXYoLyS1NVI-275" value="1" style="shape=partialRectangle;html=1;whiteSpace=wrap;connectable=0;overflow=hidden;fillColor=none;top=0;left=0;bottom=0;right=0;pointerEvents=1;" parent="S7Eitos9PWXYoLyS1NVI-274" vertex="1">
          <mxGeometry width="40" height="40" as="geometry">
            <mxRectangle width="40" height="40" as="alternateBounds" />
          </mxGeometry>
        </mxCell>
        <mxCell id="S7Eitos9PWXYoLyS1NVI-276" value="2" style="shape=partialRectangle;html=1;whiteSpace=wrap;connectable=0;overflow=hidden;fillColor=none;top=0;left=0;bottom=0;right=0;pointerEvents=1;" parent="S7Eitos9PWXYoLyS1NVI-274" vertex="1">
          <mxGeometry x="40" width="40" height="40" as="geometry">
            <mxRectangle width="40" height="40" as="alternateBounds" />
          </mxGeometry>
        </mxCell>
        <mxCell id="S7Eitos9PWXYoLyS1NVI-277" value="" style="shape=tableRow;horizontal=0;startSize=0;swimlaneHead=0;swimlaneBody=0;top=0;left=0;bottom=0;right=0;collapsible=0;dropTarget=0;fillColor=none;points=[[0,0.5],[1,0.5]];portConstraint=eastwest;" parent="S7Eitos9PWXYoLyS1NVI-267" vertex="1">
          <mxGeometry y="120" width="80" height="40" as="geometry" />
        </mxCell>
        <mxCell id="S7Eitos9PWXYoLyS1NVI-278" value="2" style="shape=partialRectangle;html=1;whiteSpace=wrap;connectable=0;overflow=hidden;fillColor=none;top=0;left=0;bottom=0;right=0;pointerEvents=1;" parent="S7Eitos9PWXYoLyS1NVI-277" vertex="1">
          <mxGeometry width="40" height="40" as="geometry">
            <mxRectangle width="40" height="40" as="alternateBounds" />
          </mxGeometry>
        </mxCell>
        <mxCell id="S7Eitos9PWXYoLyS1NVI-279" value="3" style="shape=partialRectangle;html=1;whiteSpace=wrap;connectable=0;overflow=hidden;fillColor=none;top=0;left=0;bottom=0;right=0;pointerEvents=1;" parent="S7Eitos9PWXYoLyS1NVI-277" vertex="1">
          <mxGeometry x="40" width="40" height="40" as="geometry">
            <mxRectangle width="40" height="40" as="alternateBounds" />
          </mxGeometry>
        </mxCell>
        <mxCell id="S7Eitos9PWXYoLyS1NVI-280" value="" style="shape=tableRow;horizontal=0;startSize=0;swimlaneHead=0;swimlaneBody=0;top=0;left=0;bottom=0;right=0;collapsible=0;dropTarget=0;fillColor=none;points=[[0,0.5],[1,0.5]];portConstraint=eastwest;" parent="S7Eitos9PWXYoLyS1NVI-267" vertex="1">
          <mxGeometry y="160" width="80" height="40" as="geometry" />
        </mxCell>
        <mxCell id="S7Eitos9PWXYoLyS1NVI-281" value="3" style="shape=partialRectangle;html=1;whiteSpace=wrap;connectable=0;overflow=hidden;fillColor=none;top=0;left=0;bottom=0;right=0;pointerEvents=1;" parent="S7Eitos9PWXYoLyS1NVI-280" vertex="1">
          <mxGeometry width="40" height="40" as="geometry">
            <mxRectangle width="40" height="40" as="alternateBounds" />
          </mxGeometry>
        </mxCell>
        <mxCell id="S7Eitos9PWXYoLyS1NVI-282" value="4" style="shape=partialRectangle;html=1;whiteSpace=wrap;connectable=0;overflow=hidden;fillColor=none;top=0;left=0;bottom=0;right=0;pointerEvents=1;" parent="S7Eitos9PWXYoLyS1NVI-280" vertex="1">
          <mxGeometry x="40" width="40" height="40" as="geometry">
            <mxRectangle width="40" height="40" as="alternateBounds" />
          </mxGeometry>
        </mxCell>
        <mxCell id="S7Eitos9PWXYoLyS1NVI-283" value="" style="shape=tableRow;horizontal=0;startSize=0;swimlaneHead=0;swimlaneBody=0;top=0;left=0;bottom=0;right=0;collapsible=0;dropTarget=0;fillColor=none;points=[[0,0.5],[1,0.5]];portConstraint=eastwest;" parent="S7Eitos9PWXYoLyS1NVI-267" vertex="1">
          <mxGeometry y="200" width="80" height="40" as="geometry" />
        </mxCell>
        <mxCell id="S7Eitos9PWXYoLyS1NVI-284" value="4" style="shape=partialRectangle;html=1;whiteSpace=wrap;connectable=0;overflow=hidden;fillColor=none;top=0;left=0;bottom=0;right=0;pointerEvents=1;" parent="S7Eitos9PWXYoLyS1NVI-283" vertex="1">
          <mxGeometry width="40" height="40" as="geometry">
            <mxRectangle width="40" height="40" as="alternateBounds" />
          </mxGeometry>
        </mxCell>
        <mxCell id="S7Eitos9PWXYoLyS1NVI-285" value="5" style="shape=partialRectangle;html=1;whiteSpace=wrap;connectable=0;overflow=hidden;fillColor=none;top=0;left=0;bottom=0;right=0;pointerEvents=1;" parent="S7Eitos9PWXYoLyS1NVI-283" vertex="1">
          <mxGeometry x="40" width="40" height="40" as="geometry">
            <mxRectangle width="40" height="40" as="alternateBounds" />
          </mxGeometry>
        </mxCell>
        <mxCell id="S7Eitos9PWXYoLyS1NVI-286" value="" style="shape=tableRow;horizontal=0;startSize=0;swimlaneHead=0;swimlaneBody=0;top=0;left=0;bottom=0;right=0;collapsible=0;dropTarget=0;fillColor=none;points=[[0,0.5],[1,0.5]];portConstraint=eastwest;" parent="S7Eitos9PWXYoLyS1NVI-267" vertex="1">
          <mxGeometry y="240" width="80" height="40" as="geometry" />
        </mxCell>
        <mxCell id="S7Eitos9PWXYoLyS1NVI-287" value="5" style="shape=partialRectangle;html=1;whiteSpace=wrap;connectable=0;overflow=hidden;fillColor=none;top=0;left=0;bottom=0;right=0;pointerEvents=1;" parent="S7Eitos9PWXYoLyS1NVI-286" vertex="1">
          <mxGeometry width="40" height="40" as="geometry">
            <mxRectangle width="40" height="40" as="alternateBounds" />
          </mxGeometry>
        </mxCell>
        <mxCell id="S7Eitos9PWXYoLyS1NVI-288" value="0" style="shape=partialRectangle;html=1;whiteSpace=wrap;connectable=0;overflow=hidden;fillColor=none;top=0;left=0;bottom=0;right=0;pointerEvents=1;" parent="S7Eitos9PWXYoLyS1NVI-286" vertex="1">
          <mxGeometry x="40" width="40" height="40" as="geometry">
            <mxRectangle width="40" height="40" as="alternateBounds" />
          </mxGeometry>
        </mxCell>
        <mxCell id="S7Eitos9PWXYoLyS1NVI-289" value="" style="shape=table;startSize=0;container=1;collapsible=0;childLayout=tableLayout;" parent="1" vertex="1">
          <mxGeometry x="520" y="80" width="80" height="280" as="geometry" />
        </mxCell>
        <mxCell id="S7Eitos9PWXYoLyS1NVI-290" value="" style="shape=tableRow;horizontal=0;startSize=0;swimlaneHead=0;swimlaneBody=0;top=0;left=0;bottom=0;right=0;collapsible=0;dropTarget=0;fillColor=none;points=[[0,0.5],[1,0.5]];portConstraint=eastwest;" parent="S7Eitos9PWXYoLyS1NVI-289" vertex="1">
          <mxGeometry width="80" height="40" as="geometry" />
        </mxCell>
        <mxCell id="S7Eitos9PWXYoLyS1NVI-291" value="Slot" style="shape=partialRectangle;html=1;whiteSpace=wrap;connectable=0;overflow=hidden;fillColor=none;top=0;left=0;bottom=0;right=0;pointerEvents=1;" parent="S7Eitos9PWXYoLyS1NVI-290" vertex="1">
          <mxGeometry width="40" height="40" as="geometry">
            <mxRectangle width="40" height="40" as="alternateBounds" />
          </mxGeometry>
        </mxCell>
        <mxCell id="S7Eitos9PWXYoLyS1NVI-292" value="Next" style="shape=partialRectangle;html=1;whiteSpace=wrap;connectable=0;overflow=hidden;fillColor=none;top=0;left=0;bottom=0;right=0;pointerEvents=1;" parent="S7Eitos9PWXYoLyS1NVI-290" vertex="1">
          <mxGeometry x="40" width="40" height="40" as="geometry">
            <mxRectangle width="40" height="40" as="alternateBounds" />
          </mxGeometry>
        </mxCell>
        <mxCell id="S7Eitos9PWXYoLyS1NVI-293" value="" style="shape=tableRow;horizontal=0;startSize=0;swimlaneHead=0;swimlaneBody=0;top=0;left=0;bottom=0;right=0;collapsible=0;dropTarget=0;fillColor=none;points=[[0,0.5],[1,0.5]];portConstraint=eastwest;" parent="S7Eitos9PWXYoLyS1NVI-289" vertex="1">
          <mxGeometry y="40" width="80" height="40" as="geometry" />
        </mxCell>
        <mxCell id="S7Eitos9PWXYoLyS1NVI-294" value="0" style="shape=partialRectangle;html=1;whiteSpace=wrap;connectable=0;overflow=hidden;fillColor=none;top=0;left=0;bottom=0;right=0;pointerEvents=1;" parent="S7Eitos9PWXYoLyS1NVI-293" vertex="1">
          <mxGeometry width="40" height="40" as="geometry">
            <mxRectangle width="40" height="40" as="alternateBounds" />
          </mxGeometry>
        </mxCell>
        <mxCell id="S7Eitos9PWXYoLyS1NVI-295" value="&lt;font color=&quot;#ff0000&quot;&gt;4&lt;/font&gt;" style="shape=partialRectangle;html=1;whiteSpace=wrap;connectable=0;overflow=hidden;fillColor=none;top=0;left=0;bottom=0;right=0;pointerEvents=1;" parent="S7Eitos9PWXYoLyS1NVI-293" vertex="1">
          <mxGeometry x="40" width="40" height="40" as="geometry">
            <mxRectangle width="40" height="40" as="alternateBounds" />
          </mxGeometry>
        </mxCell>
        <mxCell id="S7Eitos9PWXYoLyS1NVI-296" value="" style="shape=tableRow;horizontal=0;startSize=0;swimlaneHead=0;swimlaneBody=0;top=0;left=0;bottom=0;right=0;collapsible=0;dropTarget=0;fillColor=none;points=[[0,0.5],[1,0.5]];portConstraint=eastwest;" parent="S7Eitos9PWXYoLyS1NVI-289" vertex="1">
          <mxGeometry y="80" width="80" height="40" as="geometry" />
        </mxCell>
        <mxCell id="S7Eitos9PWXYoLyS1NVI-297" value="1" style="shape=partialRectangle;html=1;whiteSpace=wrap;connectable=0;overflow=hidden;fillColor=none;top=0;left=0;bottom=0;right=0;pointerEvents=1;" parent="S7Eitos9PWXYoLyS1NVI-296" vertex="1">
          <mxGeometry width="40" height="40" as="geometry">
            <mxRectangle width="40" height="40" as="alternateBounds" />
          </mxGeometry>
        </mxCell>
        <mxCell id="S7Eitos9PWXYoLyS1NVI-298" value="2" style="shape=partialRectangle;html=1;whiteSpace=wrap;connectable=0;overflow=hidden;fillColor=none;top=0;left=0;bottom=0;right=0;pointerEvents=1;" parent="S7Eitos9PWXYoLyS1NVI-296" vertex="1">
          <mxGeometry x="40" width="40" height="40" as="geometry">
            <mxRectangle width="40" height="40" as="alternateBounds" />
          </mxGeometry>
        </mxCell>
        <mxCell id="S7Eitos9PWXYoLyS1NVI-299" value="" style="shape=tableRow;horizontal=0;startSize=0;swimlaneHead=0;swimlaneBody=0;top=0;left=0;bottom=0;right=0;collapsible=0;dropTarget=0;fillColor=none;points=[[0,0.5],[1,0.5]];portConstraint=eastwest;" parent="S7Eitos9PWXYoLyS1NVI-289" vertex="1">
          <mxGeometry y="120" width="80" height="40" as="geometry" />
        </mxCell>
        <mxCell id="S7Eitos9PWXYoLyS1NVI-300" value="2" style="shape=partialRectangle;html=1;whiteSpace=wrap;connectable=0;overflow=hidden;fillColor=none;top=0;left=0;bottom=0;right=0;pointerEvents=1;" parent="S7Eitos9PWXYoLyS1NVI-299" vertex="1">
          <mxGeometry width="40" height="40" as="geometry">
            <mxRectangle width="40" height="40" as="alternateBounds" />
          </mxGeometry>
        </mxCell>
        <mxCell id="S7Eitos9PWXYoLyS1NVI-301" value="3" style="shape=partialRectangle;html=1;whiteSpace=wrap;connectable=0;overflow=hidden;fillColor=none;top=0;left=0;bottom=0;right=0;pointerEvents=1;" parent="S7Eitos9PWXYoLyS1NVI-299" vertex="1">
          <mxGeometry x="40" width="40" height="40" as="geometry">
            <mxRectangle width="40" height="40" as="alternateBounds" />
          </mxGeometry>
        </mxCell>
        <mxCell id="S7Eitos9PWXYoLyS1NVI-302" value="" style="shape=tableRow;horizontal=0;startSize=0;swimlaneHead=0;swimlaneBody=0;top=0;left=0;bottom=0;right=0;collapsible=0;dropTarget=0;fillColor=none;points=[[0,0.5],[1,0.5]];portConstraint=eastwest;" parent="S7Eitos9PWXYoLyS1NVI-289" vertex="1">
          <mxGeometry y="160" width="80" height="40" as="geometry" />
        </mxCell>
        <mxCell id="S7Eitos9PWXYoLyS1NVI-303" value="3" style="shape=partialRectangle;html=1;whiteSpace=wrap;connectable=0;overflow=hidden;fillColor=none;top=0;left=0;bottom=0;right=0;pointerEvents=1;" parent="S7Eitos9PWXYoLyS1NVI-302" vertex="1">
          <mxGeometry width="40" height="40" as="geometry">
            <mxRectangle width="40" height="40" as="alternateBounds" />
          </mxGeometry>
        </mxCell>
        <mxCell id="S7Eitos9PWXYoLyS1NVI-304" value="4" style="shape=partialRectangle;html=1;whiteSpace=wrap;connectable=0;overflow=hidden;fillColor=none;top=0;left=0;bottom=0;right=0;pointerEvents=1;" parent="S7Eitos9PWXYoLyS1NVI-302" vertex="1">
          <mxGeometry x="40" width="40" height="40" as="geometry">
            <mxRectangle width="40" height="40" as="alternateBounds" />
          </mxGeometry>
        </mxCell>
        <mxCell id="S7Eitos9PWXYoLyS1NVI-305" value="" style="shape=tableRow;horizontal=0;startSize=0;swimlaneHead=0;swimlaneBody=0;top=0;left=0;bottom=0;right=0;collapsible=0;dropTarget=0;fillColor=none;points=[[0,0.5],[1,0.5]];portConstraint=eastwest;" parent="S7Eitos9PWXYoLyS1NVI-289" vertex="1">
          <mxGeometry y="200" width="80" height="40" as="geometry" />
        </mxCell>
        <mxCell id="S7Eitos9PWXYoLyS1NVI-306" value="4" style="shape=partialRectangle;html=1;whiteSpace=wrap;connectable=0;overflow=hidden;fillColor=none;top=0;left=0;bottom=0;right=0;pointerEvents=1;" parent="S7Eitos9PWXYoLyS1NVI-305" vertex="1">
          <mxGeometry width="40" height="40" as="geometry">
            <mxRectangle width="40" height="40" as="alternateBounds" />
          </mxGeometry>
        </mxCell>
        <mxCell id="S7Eitos9PWXYoLyS1NVI-307" value="5" style="shape=partialRectangle;html=1;whiteSpace=wrap;connectable=0;overflow=hidden;fillColor=none;top=0;left=0;bottom=0;right=0;pointerEvents=1;" parent="S7Eitos9PWXYoLyS1NVI-305" vertex="1">
          <mxGeometry x="40" width="40" height="40" as="geometry">
            <mxRectangle width="40" height="40" as="alternateBounds" />
          </mxGeometry>
        </mxCell>
        <mxCell id="S7Eitos9PWXYoLyS1NVI-308" value="" style="shape=tableRow;horizontal=0;startSize=0;swimlaneHead=0;swimlaneBody=0;top=0;left=0;bottom=0;right=0;collapsible=0;dropTarget=0;fillColor=none;points=[[0,0.5],[1,0.5]];portConstraint=eastwest;" parent="S7Eitos9PWXYoLyS1NVI-289" vertex="1">
          <mxGeometry y="240" width="80" height="40" as="geometry" />
        </mxCell>
        <mxCell id="S7Eitos9PWXYoLyS1NVI-309" value="5" style="shape=partialRectangle;html=1;whiteSpace=wrap;connectable=0;overflow=hidden;fillColor=none;top=0;left=0;bottom=0;right=0;pointerEvents=1;" parent="S7Eitos9PWXYoLyS1NVI-308" vertex="1">
          <mxGeometry width="40" height="40" as="geometry">
            <mxRectangle width="40" height="40" as="alternateBounds" />
          </mxGeometry>
        </mxCell>
        <mxCell id="S7Eitos9PWXYoLyS1NVI-310" value="0" style="shape=partialRectangle;html=1;whiteSpace=wrap;connectable=0;overflow=hidden;fillColor=none;top=0;left=0;bottom=0;right=0;pointerEvents=1;" parent="S7Eitos9PWXYoLyS1NVI-308" vertex="1">
          <mxGeometry x="40" width="40" height="40" as="geometry">
            <mxRectangle width="40" height="40" as="alternateBounds" />
          </mxGeometry>
        </mxCell>
        <mxCell id="S7Eitos9PWXYoLyS1NVI-311" value="" style="shape=table;startSize=0;container=1;collapsible=0;childLayout=tableLayout;" parent="1" vertex="1">
          <mxGeometry x="680" y="80" width="80" height="280" as="geometry" />
        </mxCell>
        <mxCell id="S7Eitos9PWXYoLyS1NVI-312" value="" style="shape=tableRow;horizontal=0;startSize=0;swimlaneHead=0;swimlaneBody=0;top=0;left=0;bottom=0;right=0;collapsible=0;dropTarget=0;fillColor=none;points=[[0,0.5],[1,0.5]];portConstraint=eastwest;" parent="S7Eitos9PWXYoLyS1NVI-311" vertex="1">
          <mxGeometry width="80" height="40" as="geometry" />
        </mxCell>
        <mxCell id="S7Eitos9PWXYoLyS1NVI-313" value="Slot" style="shape=partialRectangle;html=1;whiteSpace=wrap;connectable=0;overflow=hidden;fillColor=none;top=0;left=0;bottom=0;right=0;pointerEvents=1;" parent="S7Eitos9PWXYoLyS1NVI-312" vertex="1">
          <mxGeometry width="40" height="40" as="geometry">
            <mxRectangle width="40" height="40" as="alternateBounds" />
          </mxGeometry>
        </mxCell>
        <mxCell id="S7Eitos9PWXYoLyS1NVI-314" value="Next" style="shape=partialRectangle;html=1;whiteSpace=wrap;connectable=0;overflow=hidden;fillColor=none;top=0;left=0;bottom=0;right=0;pointerEvents=1;" parent="S7Eitos9PWXYoLyS1NVI-312" vertex="1">
          <mxGeometry x="40" width="40" height="40" as="geometry">
            <mxRectangle width="40" height="40" as="alternateBounds" />
          </mxGeometry>
        </mxCell>
        <mxCell id="S7Eitos9PWXYoLyS1NVI-315" value="" style="shape=tableRow;horizontal=0;startSize=0;swimlaneHead=0;swimlaneBody=0;top=0;left=0;bottom=0;right=0;collapsible=0;dropTarget=0;fillColor=none;points=[[0,0.5],[1,0.5]];portConstraint=eastwest;" parent="S7Eitos9PWXYoLyS1NVI-311" vertex="1">
          <mxGeometry y="40" width="80" height="40" as="geometry" />
        </mxCell>
        <mxCell id="S7Eitos9PWXYoLyS1NVI-316" value="0" style="shape=partialRectangle;html=1;whiteSpace=wrap;connectable=0;overflow=hidden;fillColor=none;top=0;left=0;bottom=0;right=0;pointerEvents=1;" parent="S7Eitos9PWXYoLyS1NVI-315" vertex="1">
          <mxGeometry width="40" height="40" as="geometry">
            <mxRectangle width="40" height="40" as="alternateBounds" />
          </mxGeometry>
        </mxCell>
        <mxCell id="S7Eitos9PWXYoLyS1NVI-317" value="&lt;font color=&quot;#ff0000&quot;&gt;5&lt;/font&gt;" style="shape=partialRectangle;html=1;whiteSpace=wrap;connectable=0;overflow=hidden;fillColor=none;top=0;left=0;bottom=0;right=0;pointerEvents=1;" parent="S7Eitos9PWXYoLyS1NVI-315" vertex="1">
          <mxGeometry x="40" width="40" height="40" as="geometry">
            <mxRectangle width="40" height="40" as="alternateBounds" />
          </mxGeometry>
        </mxCell>
        <mxCell id="S7Eitos9PWXYoLyS1NVI-318" value="" style="shape=tableRow;horizontal=0;startSize=0;swimlaneHead=0;swimlaneBody=0;top=0;left=0;bottom=0;right=0;collapsible=0;dropTarget=0;fillColor=none;points=[[0,0.5],[1,0.5]];portConstraint=eastwest;" parent="S7Eitos9PWXYoLyS1NVI-311" vertex="1">
          <mxGeometry y="80" width="80" height="40" as="geometry" />
        </mxCell>
        <mxCell id="S7Eitos9PWXYoLyS1NVI-319" value="1" style="shape=partialRectangle;html=1;whiteSpace=wrap;connectable=0;overflow=hidden;fillColor=none;top=0;left=0;bottom=0;right=0;pointerEvents=1;" parent="S7Eitos9PWXYoLyS1NVI-318" vertex="1">
          <mxGeometry width="40" height="40" as="geometry">
            <mxRectangle width="40" height="40" as="alternateBounds" />
          </mxGeometry>
        </mxCell>
        <mxCell id="S7Eitos9PWXYoLyS1NVI-320" value="2" style="shape=partialRectangle;html=1;whiteSpace=wrap;connectable=0;overflow=hidden;fillColor=none;top=0;left=0;bottom=0;right=0;pointerEvents=1;" parent="S7Eitos9PWXYoLyS1NVI-318" vertex="1">
          <mxGeometry x="40" width="40" height="40" as="geometry">
            <mxRectangle width="40" height="40" as="alternateBounds" />
          </mxGeometry>
        </mxCell>
        <mxCell id="S7Eitos9PWXYoLyS1NVI-321" value="" style="shape=tableRow;horizontal=0;startSize=0;swimlaneHead=0;swimlaneBody=0;top=0;left=0;bottom=0;right=0;collapsible=0;dropTarget=0;fillColor=none;points=[[0,0.5],[1,0.5]];portConstraint=eastwest;" parent="S7Eitos9PWXYoLyS1NVI-311" vertex="1">
          <mxGeometry y="120" width="80" height="40" as="geometry" />
        </mxCell>
        <mxCell id="S7Eitos9PWXYoLyS1NVI-322" value="2" style="shape=partialRectangle;html=1;whiteSpace=wrap;connectable=0;overflow=hidden;fillColor=none;top=0;left=0;bottom=0;right=0;pointerEvents=1;" parent="S7Eitos9PWXYoLyS1NVI-321" vertex="1">
          <mxGeometry width="40" height="40" as="geometry">
            <mxRectangle width="40" height="40" as="alternateBounds" />
          </mxGeometry>
        </mxCell>
        <mxCell id="S7Eitos9PWXYoLyS1NVI-323" value="3" style="shape=partialRectangle;html=1;whiteSpace=wrap;connectable=0;overflow=hidden;fillColor=none;top=0;left=0;bottom=0;right=0;pointerEvents=1;" parent="S7Eitos9PWXYoLyS1NVI-321" vertex="1">
          <mxGeometry x="40" width="40" height="40" as="geometry">
            <mxRectangle width="40" height="40" as="alternateBounds" />
          </mxGeometry>
        </mxCell>
        <mxCell id="S7Eitos9PWXYoLyS1NVI-324" value="" style="shape=tableRow;horizontal=0;startSize=0;swimlaneHead=0;swimlaneBody=0;top=0;left=0;bottom=0;right=0;collapsible=0;dropTarget=0;fillColor=none;points=[[0,0.5],[1,0.5]];portConstraint=eastwest;" parent="S7Eitos9PWXYoLyS1NVI-311" vertex="1">
          <mxGeometry y="160" width="80" height="40" as="geometry" />
        </mxCell>
        <mxCell id="S7Eitos9PWXYoLyS1NVI-325" value="3" style="shape=partialRectangle;html=1;whiteSpace=wrap;connectable=0;overflow=hidden;fillColor=none;top=0;left=0;bottom=0;right=0;pointerEvents=1;" parent="S7Eitos9PWXYoLyS1NVI-324" vertex="1">
          <mxGeometry width="40" height="40" as="geometry">
            <mxRectangle width="40" height="40" as="alternateBounds" />
          </mxGeometry>
        </mxCell>
        <mxCell id="S7Eitos9PWXYoLyS1NVI-326" value="4" style="shape=partialRectangle;html=1;whiteSpace=wrap;connectable=0;overflow=hidden;fillColor=none;top=0;left=0;bottom=0;right=0;pointerEvents=1;" parent="S7Eitos9PWXYoLyS1NVI-324" vertex="1">
          <mxGeometry x="40" width="40" height="40" as="geometry">
            <mxRectangle width="40" height="40" as="alternateBounds" />
          </mxGeometry>
        </mxCell>
        <mxCell id="S7Eitos9PWXYoLyS1NVI-327" value="" style="shape=tableRow;horizontal=0;startSize=0;swimlaneHead=0;swimlaneBody=0;top=0;left=0;bottom=0;right=0;collapsible=0;dropTarget=0;fillColor=none;points=[[0,0.5],[1,0.5]];portConstraint=eastwest;" parent="S7Eitos9PWXYoLyS1NVI-311" vertex="1">
          <mxGeometry y="200" width="80" height="40" as="geometry" />
        </mxCell>
        <mxCell id="S7Eitos9PWXYoLyS1NVI-328" value="4" style="shape=partialRectangle;html=1;whiteSpace=wrap;connectable=0;overflow=hidden;fillColor=none;top=0;left=0;bottom=0;right=0;pointerEvents=1;" parent="S7Eitos9PWXYoLyS1NVI-327" vertex="1">
          <mxGeometry width="40" height="40" as="geometry">
            <mxRectangle width="40" height="40" as="alternateBounds" />
          </mxGeometry>
        </mxCell>
        <mxCell id="S7Eitos9PWXYoLyS1NVI-329" value="5" style="shape=partialRectangle;html=1;whiteSpace=wrap;connectable=0;overflow=hidden;fillColor=none;top=0;left=0;bottom=0;right=0;pointerEvents=1;" parent="S7Eitos9PWXYoLyS1NVI-327" vertex="1">
          <mxGeometry x="40" width="40" height="40" as="geometry">
            <mxRectangle width="40" height="40" as="alternateBounds" />
          </mxGeometry>
        </mxCell>
        <mxCell id="S7Eitos9PWXYoLyS1NVI-330" value="" style="shape=tableRow;horizontal=0;startSize=0;swimlaneHead=0;swimlaneBody=0;top=0;left=0;bottom=0;right=0;collapsible=0;dropTarget=0;fillColor=none;points=[[0,0.5],[1,0.5]];portConstraint=eastwest;" parent="S7Eitos9PWXYoLyS1NVI-311" vertex="1">
          <mxGeometry y="240" width="80" height="40" as="geometry" />
        </mxCell>
        <mxCell id="S7Eitos9PWXYoLyS1NVI-331" value="5" style="shape=partialRectangle;html=1;whiteSpace=wrap;connectable=0;overflow=hidden;fillColor=none;top=0;left=0;bottom=0;right=0;pointerEvents=1;" parent="S7Eitos9PWXYoLyS1NVI-330" vertex="1">
          <mxGeometry width="40" height="40" as="geometry">
            <mxRectangle width="40" height="40" as="alternateBounds" />
          </mxGeometry>
        </mxCell>
        <mxCell id="S7Eitos9PWXYoLyS1NVI-332" value="0" style="shape=partialRectangle;html=1;whiteSpace=wrap;connectable=0;overflow=hidden;fillColor=none;top=0;left=0;bottom=0;right=0;pointerEvents=1;" parent="S7Eitos9PWXYoLyS1NVI-330" vertex="1">
          <mxGeometry x="40" width="40" height="40" as="geometry">
            <mxRectangle width="40" height="40" as="alternateBounds" />
          </mxGeometry>
        </mxCell>
        <mxCell id="S7Eitos9PWXYoLyS1NVI-333" value="" style="shape=table;startSize=0;container=1;collapsible=0;childLayout=tableLayout;" parent="1" vertex="1">
          <mxGeometry x="200" y="80" width="80" height="280" as="geometry" />
        </mxCell>
        <mxCell id="S7Eitos9PWXYoLyS1NVI-334" value="" style="shape=tableRow;horizontal=0;startSize=0;swimlaneHead=0;swimlaneBody=0;top=0;left=0;bottom=0;right=0;collapsible=0;dropTarget=0;fillColor=none;points=[[0,0.5],[1,0.5]];portConstraint=eastwest;" parent="S7Eitos9PWXYoLyS1NVI-333" vertex="1">
          <mxGeometry width="80" height="40" as="geometry" />
        </mxCell>
        <mxCell id="S7Eitos9PWXYoLyS1NVI-335" value="Slot" style="shape=partialRectangle;html=1;whiteSpace=wrap;connectable=0;overflow=hidden;fillColor=none;top=0;left=0;bottom=0;right=0;pointerEvents=1;" parent="S7Eitos9PWXYoLyS1NVI-334" vertex="1">
          <mxGeometry width="40" height="40" as="geometry">
            <mxRectangle width="40" height="40" as="alternateBounds" />
          </mxGeometry>
        </mxCell>
        <mxCell id="S7Eitos9PWXYoLyS1NVI-336" value="Next" style="shape=partialRectangle;html=1;whiteSpace=wrap;connectable=0;overflow=hidden;fillColor=none;top=0;left=0;bottom=0;right=0;pointerEvents=1;" parent="S7Eitos9PWXYoLyS1NVI-334" vertex="1">
          <mxGeometry x="40" width="40" height="40" as="geometry">
            <mxRectangle width="40" height="40" as="alternateBounds" />
          </mxGeometry>
        </mxCell>
        <mxCell id="S7Eitos9PWXYoLyS1NVI-337" value="" style="shape=tableRow;horizontal=0;startSize=0;swimlaneHead=0;swimlaneBody=0;top=0;left=0;bottom=0;right=0;collapsible=0;dropTarget=0;fillColor=none;points=[[0,0.5],[1,0.5]];portConstraint=eastwest;" parent="S7Eitos9PWXYoLyS1NVI-333" vertex="1">
          <mxGeometry y="40" width="80" height="40" as="geometry" />
        </mxCell>
        <mxCell id="S7Eitos9PWXYoLyS1NVI-338" value="0" style="shape=partialRectangle;html=1;whiteSpace=wrap;connectable=0;overflow=hidden;fillColor=none;top=0;left=0;bottom=0;right=0;pointerEvents=1;" parent="S7Eitos9PWXYoLyS1NVI-337" vertex="1">
          <mxGeometry width="40" height="40" as="geometry">
            <mxRectangle width="40" height="40" as="alternateBounds" />
          </mxGeometry>
        </mxCell>
        <mxCell id="S7Eitos9PWXYoLyS1NVI-339" value="&lt;font color=&quot;#ff0000&quot;&gt;2&lt;/font&gt;" style="shape=partialRectangle;html=1;whiteSpace=wrap;connectable=0;overflow=hidden;fillColor=none;top=0;left=0;bottom=0;right=0;pointerEvents=1;" parent="S7Eitos9PWXYoLyS1NVI-337" vertex="1">
          <mxGeometry x="40" width="40" height="40" as="geometry">
            <mxRectangle width="40" height="40" as="alternateBounds" />
          </mxGeometry>
        </mxCell>
        <mxCell id="S7Eitos9PWXYoLyS1NVI-340" value="" style="shape=tableRow;horizontal=0;startSize=0;swimlaneHead=0;swimlaneBody=0;top=0;left=0;bottom=0;right=0;collapsible=0;dropTarget=0;fillColor=none;points=[[0,0.5],[1,0.5]];portConstraint=eastwest;" parent="S7Eitos9PWXYoLyS1NVI-333" vertex="1">
          <mxGeometry y="80" width="80" height="40" as="geometry" />
        </mxCell>
        <mxCell id="S7Eitos9PWXYoLyS1NVI-341" value="1" style="shape=partialRectangle;html=1;whiteSpace=wrap;connectable=0;overflow=hidden;fillColor=none;top=0;left=0;bottom=0;right=0;pointerEvents=1;" parent="S7Eitos9PWXYoLyS1NVI-340" vertex="1">
          <mxGeometry width="40" height="40" as="geometry">
            <mxRectangle width="40" height="40" as="alternateBounds" />
          </mxGeometry>
        </mxCell>
        <mxCell id="S7Eitos9PWXYoLyS1NVI-342" value="2" style="shape=partialRectangle;html=1;whiteSpace=wrap;connectable=0;overflow=hidden;fillColor=none;top=0;left=0;bottom=0;right=0;pointerEvents=1;" parent="S7Eitos9PWXYoLyS1NVI-340" vertex="1">
          <mxGeometry x="40" width="40" height="40" as="geometry">
            <mxRectangle width="40" height="40" as="alternateBounds" />
          </mxGeometry>
        </mxCell>
        <mxCell id="S7Eitos9PWXYoLyS1NVI-343" value="" style="shape=tableRow;horizontal=0;startSize=0;swimlaneHead=0;swimlaneBody=0;top=0;left=0;bottom=0;right=0;collapsible=0;dropTarget=0;fillColor=none;points=[[0,0.5],[1,0.5]];portConstraint=eastwest;" parent="S7Eitos9PWXYoLyS1NVI-333" vertex="1">
          <mxGeometry y="120" width="80" height="40" as="geometry" />
        </mxCell>
        <mxCell id="S7Eitos9PWXYoLyS1NVI-344" value="2" style="shape=partialRectangle;html=1;whiteSpace=wrap;connectable=0;overflow=hidden;fillColor=none;top=0;left=0;bottom=0;right=0;pointerEvents=1;" parent="S7Eitos9PWXYoLyS1NVI-343" vertex="1">
          <mxGeometry width="40" height="40" as="geometry">
            <mxRectangle width="40" height="40" as="alternateBounds" />
          </mxGeometry>
        </mxCell>
        <mxCell id="S7Eitos9PWXYoLyS1NVI-345" value="3" style="shape=partialRectangle;html=1;whiteSpace=wrap;connectable=0;overflow=hidden;fillColor=none;top=0;left=0;bottom=0;right=0;pointerEvents=1;" parent="S7Eitos9PWXYoLyS1NVI-343" vertex="1">
          <mxGeometry x="40" width="40" height="40" as="geometry">
            <mxRectangle width="40" height="40" as="alternateBounds" />
          </mxGeometry>
        </mxCell>
        <mxCell id="S7Eitos9PWXYoLyS1NVI-346" value="" style="shape=tableRow;horizontal=0;startSize=0;swimlaneHead=0;swimlaneBody=0;top=0;left=0;bottom=0;right=0;collapsible=0;dropTarget=0;fillColor=none;points=[[0,0.5],[1,0.5]];portConstraint=eastwest;" parent="S7Eitos9PWXYoLyS1NVI-333" vertex="1">
          <mxGeometry y="160" width="80" height="40" as="geometry" />
        </mxCell>
        <mxCell id="S7Eitos9PWXYoLyS1NVI-347" value="3" style="shape=partialRectangle;html=1;whiteSpace=wrap;connectable=0;overflow=hidden;fillColor=none;top=0;left=0;bottom=0;right=0;pointerEvents=1;" parent="S7Eitos9PWXYoLyS1NVI-346" vertex="1">
          <mxGeometry width="40" height="40" as="geometry">
            <mxRectangle width="40" height="40" as="alternateBounds" />
          </mxGeometry>
        </mxCell>
        <mxCell id="S7Eitos9PWXYoLyS1NVI-348" value="4" style="shape=partialRectangle;html=1;whiteSpace=wrap;connectable=0;overflow=hidden;fillColor=none;top=0;left=0;bottom=0;right=0;pointerEvents=1;" parent="S7Eitos9PWXYoLyS1NVI-346" vertex="1">
          <mxGeometry x="40" width="40" height="40" as="geometry">
            <mxRectangle width="40" height="40" as="alternateBounds" />
          </mxGeometry>
        </mxCell>
        <mxCell id="S7Eitos9PWXYoLyS1NVI-349" value="" style="shape=tableRow;horizontal=0;startSize=0;swimlaneHead=0;swimlaneBody=0;top=0;left=0;bottom=0;right=0;collapsible=0;dropTarget=0;fillColor=none;points=[[0,0.5],[1,0.5]];portConstraint=eastwest;" parent="S7Eitos9PWXYoLyS1NVI-333" vertex="1">
          <mxGeometry y="200" width="80" height="40" as="geometry" />
        </mxCell>
        <mxCell id="S7Eitos9PWXYoLyS1NVI-350" value="4" style="shape=partialRectangle;html=1;whiteSpace=wrap;connectable=0;overflow=hidden;fillColor=none;top=0;left=0;bottom=0;right=0;pointerEvents=1;" parent="S7Eitos9PWXYoLyS1NVI-349" vertex="1">
          <mxGeometry width="40" height="40" as="geometry">
            <mxRectangle width="40" height="40" as="alternateBounds" />
          </mxGeometry>
        </mxCell>
        <mxCell id="S7Eitos9PWXYoLyS1NVI-351" value="5" style="shape=partialRectangle;html=1;whiteSpace=wrap;connectable=0;overflow=hidden;fillColor=none;top=0;left=0;bottom=0;right=0;pointerEvents=1;" parent="S7Eitos9PWXYoLyS1NVI-349" vertex="1">
          <mxGeometry x="40" width="40" height="40" as="geometry">
            <mxRectangle width="40" height="40" as="alternateBounds" />
          </mxGeometry>
        </mxCell>
        <mxCell id="S7Eitos9PWXYoLyS1NVI-352" value="" style="shape=tableRow;horizontal=0;startSize=0;swimlaneHead=0;swimlaneBody=0;top=0;left=0;bottom=0;right=0;collapsible=0;dropTarget=0;fillColor=none;points=[[0,0.5],[1,0.5]];portConstraint=eastwest;" parent="S7Eitos9PWXYoLyS1NVI-333" vertex="1">
          <mxGeometry y="240" width="80" height="40" as="geometry" />
        </mxCell>
        <mxCell id="S7Eitos9PWXYoLyS1NVI-353" value="5" style="shape=partialRectangle;html=1;whiteSpace=wrap;connectable=0;overflow=hidden;fillColor=none;top=0;left=0;bottom=0;right=0;pointerEvents=1;" parent="S7Eitos9PWXYoLyS1NVI-352" vertex="1">
          <mxGeometry width="40" height="40" as="geometry">
            <mxRectangle width="40" height="40" as="alternateBounds" />
          </mxGeometry>
        </mxCell>
        <mxCell id="S7Eitos9PWXYoLyS1NVI-354" value="0" style="shape=partialRectangle;html=1;whiteSpace=wrap;connectable=0;overflow=hidden;fillColor=none;top=0;left=0;bottom=0;right=0;pointerEvents=1;" parent="S7Eitos9PWXYoLyS1NVI-352" vertex="1">
          <mxGeometry x="40" width="40" height="40" as="geometry">
            <mxRectangle width="40" height="40" as="alternateBounds" />
          </mxGeometry>
        </mxCell>
        <mxCell id="S7Eitos9PWXYoLyS1NVI-355" value="" style="shape=table;startSize=0;container=1;collapsible=0;childLayout=tableLayout;" parent="1" vertex="1">
          <mxGeometry x="680" y="440" width="80" height="280" as="geometry" />
        </mxCell>
        <mxCell id="S7Eitos9PWXYoLyS1NVI-356" value="" style="shape=tableRow;horizontal=0;startSize=0;swimlaneHead=0;swimlaneBody=0;top=0;left=0;bottom=0;right=0;collapsible=0;dropTarget=0;fillColor=none;points=[[0,0.5],[1,0.5]];portConstraint=eastwest;" parent="S7Eitos9PWXYoLyS1NVI-355" vertex="1">
          <mxGeometry width="80" height="40" as="geometry" />
        </mxCell>
        <mxCell id="S7Eitos9PWXYoLyS1NVI-357" value="Slot" style="shape=partialRectangle;html=1;whiteSpace=wrap;connectable=0;overflow=hidden;fillColor=none;top=0;left=0;bottom=0;right=0;pointerEvents=1;" parent="S7Eitos9PWXYoLyS1NVI-356" vertex="1">
          <mxGeometry width="40" height="40" as="geometry">
            <mxRectangle width="40" height="40" as="alternateBounds" />
          </mxGeometry>
        </mxCell>
        <mxCell id="S7Eitos9PWXYoLyS1NVI-358" value="Next" style="shape=partialRectangle;html=1;whiteSpace=wrap;connectable=0;overflow=hidden;fillColor=none;top=0;left=0;bottom=0;right=0;pointerEvents=1;" parent="S7Eitos9PWXYoLyS1NVI-356" vertex="1">
          <mxGeometry x="40" width="40" height="40" as="geometry">
            <mxRectangle width="40" height="40" as="alternateBounds" />
          </mxGeometry>
        </mxCell>
        <mxCell id="S7Eitos9PWXYoLyS1NVI-359" value="" style="shape=tableRow;horizontal=0;startSize=0;swimlaneHead=0;swimlaneBody=0;top=0;left=0;bottom=0;right=0;collapsible=0;dropTarget=0;fillColor=none;points=[[0,0.5],[1,0.5]];portConstraint=eastwest;" parent="S7Eitos9PWXYoLyS1NVI-355" vertex="1">
          <mxGeometry y="40" width="80" height="40" as="geometry" />
        </mxCell>
        <mxCell id="S7Eitos9PWXYoLyS1NVI-360" value="0" style="shape=partialRectangle;html=1;whiteSpace=wrap;connectable=0;overflow=hidden;fillColor=none;top=0;left=0;bottom=0;right=0;pointerEvents=1;" parent="S7Eitos9PWXYoLyS1NVI-359" vertex="1">
          <mxGeometry width="40" height="40" as="geometry">
            <mxRectangle width="40" height="40" as="alternateBounds" />
          </mxGeometry>
        </mxCell>
        <mxCell id="S7Eitos9PWXYoLyS1NVI-361" value="&lt;font color=&quot;#ff0000&quot;&gt;1&lt;/font&gt;" style="shape=partialRectangle;html=1;whiteSpace=wrap;connectable=0;overflow=hidden;fillColor=none;top=0;left=0;bottom=0;right=0;pointerEvents=1;" parent="S7Eitos9PWXYoLyS1NVI-359" vertex="1">
          <mxGeometry x="40" width="40" height="40" as="geometry">
            <mxRectangle width="40" height="40" as="alternateBounds" />
          </mxGeometry>
        </mxCell>
        <mxCell id="S7Eitos9PWXYoLyS1NVI-362" value="" style="shape=tableRow;horizontal=0;startSize=0;swimlaneHead=0;swimlaneBody=0;top=0;left=0;bottom=0;right=0;collapsible=0;dropTarget=0;fillColor=none;points=[[0,0.5],[1,0.5]];portConstraint=eastwest;" parent="S7Eitos9PWXYoLyS1NVI-355" vertex="1">
          <mxGeometry y="80" width="80" height="40" as="geometry" />
        </mxCell>
        <mxCell id="S7Eitos9PWXYoLyS1NVI-363" value="1" style="shape=partialRectangle;html=1;whiteSpace=wrap;connectable=0;overflow=hidden;fillColor=none;top=0;left=0;bottom=0;right=0;pointerEvents=1;" parent="S7Eitos9PWXYoLyS1NVI-362" vertex="1">
          <mxGeometry width="40" height="40" as="geometry">
            <mxRectangle width="40" height="40" as="alternateBounds" />
          </mxGeometry>
        </mxCell>
        <mxCell id="S7Eitos9PWXYoLyS1NVI-364" value="&lt;font color=&quot;#ff0000&quot;&gt;5&lt;/font&gt;" style="shape=partialRectangle;html=1;whiteSpace=wrap;connectable=0;overflow=hidden;fillColor=none;top=0;left=0;bottom=0;right=0;pointerEvents=1;" parent="S7Eitos9PWXYoLyS1NVI-362" vertex="1">
          <mxGeometry x="40" width="40" height="40" as="geometry">
            <mxRectangle width="40" height="40" as="alternateBounds" />
          </mxGeometry>
        </mxCell>
        <mxCell id="S7Eitos9PWXYoLyS1NVI-365" value="" style="shape=tableRow;horizontal=0;startSize=0;swimlaneHead=0;swimlaneBody=0;top=0;left=0;bottom=0;right=0;collapsible=0;dropTarget=0;fillColor=none;points=[[0,0.5],[1,0.5]];portConstraint=eastwest;" parent="S7Eitos9PWXYoLyS1NVI-355" vertex="1">
          <mxGeometry y="120" width="80" height="40" as="geometry" />
        </mxCell>
        <mxCell id="S7Eitos9PWXYoLyS1NVI-366" value="2" style="shape=partialRectangle;html=1;whiteSpace=wrap;connectable=0;overflow=hidden;fillColor=none;top=0;left=0;bottom=0;right=0;pointerEvents=1;" parent="S7Eitos9PWXYoLyS1NVI-365" vertex="1">
          <mxGeometry width="40" height="40" as="geometry">
            <mxRectangle width="40" height="40" as="alternateBounds" />
          </mxGeometry>
        </mxCell>
        <mxCell id="S7Eitos9PWXYoLyS1NVI-367" value="3" style="shape=partialRectangle;html=1;whiteSpace=wrap;connectable=0;overflow=hidden;fillColor=none;top=0;left=0;bottom=0;right=0;pointerEvents=1;" parent="S7Eitos9PWXYoLyS1NVI-365" vertex="1">
          <mxGeometry x="40" width="40" height="40" as="geometry">
            <mxRectangle width="40" height="40" as="alternateBounds" />
          </mxGeometry>
        </mxCell>
        <mxCell id="S7Eitos9PWXYoLyS1NVI-368" value="" style="shape=tableRow;horizontal=0;startSize=0;swimlaneHead=0;swimlaneBody=0;top=0;left=0;bottom=0;right=0;collapsible=0;dropTarget=0;fillColor=none;points=[[0,0.5],[1,0.5]];portConstraint=eastwest;" parent="S7Eitos9PWXYoLyS1NVI-355" vertex="1">
          <mxGeometry y="160" width="80" height="40" as="geometry" />
        </mxCell>
        <mxCell id="S7Eitos9PWXYoLyS1NVI-369" value="3" style="shape=partialRectangle;html=1;whiteSpace=wrap;connectable=0;overflow=hidden;fillColor=none;top=0;left=0;bottom=0;right=0;pointerEvents=1;" parent="S7Eitos9PWXYoLyS1NVI-368" vertex="1">
          <mxGeometry width="40" height="40" as="geometry">
            <mxRectangle width="40" height="40" as="alternateBounds" />
          </mxGeometry>
        </mxCell>
        <mxCell id="S7Eitos9PWXYoLyS1NVI-370" value="4" style="shape=partialRectangle;html=1;whiteSpace=wrap;connectable=0;overflow=hidden;fillColor=none;top=0;left=0;bottom=0;right=0;pointerEvents=1;" parent="S7Eitos9PWXYoLyS1NVI-368" vertex="1">
          <mxGeometry x="40" width="40" height="40" as="geometry">
            <mxRectangle width="40" height="40" as="alternateBounds" />
          </mxGeometry>
        </mxCell>
        <mxCell id="S7Eitos9PWXYoLyS1NVI-371" value="" style="shape=tableRow;horizontal=0;startSize=0;swimlaneHead=0;swimlaneBody=0;top=0;left=0;bottom=0;right=0;collapsible=0;dropTarget=0;fillColor=none;points=[[0,0.5],[1,0.5]];portConstraint=eastwest;" parent="S7Eitos9PWXYoLyS1NVI-355" vertex="1">
          <mxGeometry y="200" width="80" height="40" as="geometry" />
        </mxCell>
        <mxCell id="S7Eitos9PWXYoLyS1NVI-372" value="4" style="shape=partialRectangle;html=1;whiteSpace=wrap;connectable=0;overflow=hidden;fillColor=none;top=0;left=0;bottom=0;right=0;pointerEvents=1;" parent="S7Eitos9PWXYoLyS1NVI-371" vertex="1">
          <mxGeometry width="40" height="40" as="geometry">
            <mxRectangle width="40" height="40" as="alternateBounds" />
          </mxGeometry>
        </mxCell>
        <mxCell id="S7Eitos9PWXYoLyS1NVI-373" value="5" style="shape=partialRectangle;html=1;whiteSpace=wrap;connectable=0;overflow=hidden;fillColor=none;top=0;left=0;bottom=0;right=0;pointerEvents=1;" parent="S7Eitos9PWXYoLyS1NVI-371" vertex="1">
          <mxGeometry x="40" width="40" height="40" as="geometry">
            <mxRectangle width="40" height="40" as="alternateBounds" />
          </mxGeometry>
        </mxCell>
        <mxCell id="S7Eitos9PWXYoLyS1NVI-374" value="" style="shape=tableRow;horizontal=0;startSize=0;swimlaneHead=0;swimlaneBody=0;top=0;left=0;bottom=0;right=0;collapsible=0;dropTarget=0;fillColor=none;points=[[0,0.5],[1,0.5]];portConstraint=eastwest;" parent="S7Eitos9PWXYoLyS1NVI-355" vertex="1">
          <mxGeometry y="240" width="80" height="40" as="geometry" />
        </mxCell>
        <mxCell id="S7Eitos9PWXYoLyS1NVI-375" value="5" style="shape=partialRectangle;html=1;whiteSpace=wrap;connectable=0;overflow=hidden;fillColor=none;top=0;left=0;bottom=0;right=0;pointerEvents=1;" parent="S7Eitos9PWXYoLyS1NVI-374" vertex="1">
          <mxGeometry width="40" height="40" as="geometry">
            <mxRectangle width="40" height="40" as="alternateBounds" />
          </mxGeometry>
        </mxCell>
        <mxCell id="S7Eitos9PWXYoLyS1NVI-376" value="0" style="shape=partialRectangle;html=1;whiteSpace=wrap;connectable=0;overflow=hidden;fillColor=none;top=0;left=0;bottom=0;right=0;pointerEvents=1;" parent="S7Eitos9PWXYoLyS1NVI-374" vertex="1">
          <mxGeometry x="40" width="40" height="40" as="geometry">
            <mxRectangle width="40" height="40" as="alternateBounds" />
          </mxGeometry>
        </mxCell>
        <mxCell id="S7Eitos9PWXYoLyS1NVI-377" value="&lt;font color=&quot;#ffffff&quot;&gt;CF(1)&lt;/font&gt;" style="text;html=1;align=center;verticalAlign=middle;resizable=0;points=[];autosize=1;strokeColor=none;fillColor=none;fontColor=#FF0000;" parent="1" vertex="1">
          <mxGeometry x="735" y="390" width="50" height="20" as="geometry" />
        </mxCell>
        <mxCell id="S7Eitos9PWXYoLyS1NVI-378" value="" style="shape=singleArrow;whiteSpace=wrap;html=1;fontColor=#FF0000;arrowWidth=0.25769230769231993;arrowSize=0.4076923076923151;direction=west;" parent="1" vertex="1">
          <mxGeometry x="620" y="555" width="40" height="20" as="geometry" />
        </mxCell>
        <mxCell id="S7Eitos9PWXYoLyS1NVI-379" value="" style="shape=table;startSize=0;container=1;collapsible=0;childLayout=tableLayout;" parent="1" vertex="1">
          <mxGeometry x="520" y="440" width="80" height="280" as="geometry" />
        </mxCell>
        <mxCell id="S7Eitos9PWXYoLyS1NVI-380" value="" style="shape=tableRow;horizontal=0;startSize=0;swimlaneHead=0;swimlaneBody=0;top=0;left=0;bottom=0;right=0;collapsible=0;dropTarget=0;fillColor=none;points=[[0,0.5],[1,0.5]];portConstraint=eastwest;" parent="S7Eitos9PWXYoLyS1NVI-379" vertex="1">
          <mxGeometry width="80" height="40" as="geometry" />
        </mxCell>
        <mxCell id="S7Eitos9PWXYoLyS1NVI-381" value="Slot" style="shape=partialRectangle;html=1;whiteSpace=wrap;connectable=0;overflow=hidden;fillColor=none;top=0;left=0;bottom=0;right=0;pointerEvents=1;" parent="S7Eitos9PWXYoLyS1NVI-380" vertex="1">
          <mxGeometry width="40" height="40" as="geometry">
            <mxRectangle width="40" height="40" as="alternateBounds" />
          </mxGeometry>
        </mxCell>
        <mxCell id="S7Eitos9PWXYoLyS1NVI-382" value="Next" style="shape=partialRectangle;html=1;whiteSpace=wrap;connectable=0;overflow=hidden;fillColor=none;top=0;left=0;bottom=0;right=0;pointerEvents=1;" parent="S7Eitos9PWXYoLyS1NVI-380" vertex="1">
          <mxGeometry x="40" width="40" height="40" as="geometry">
            <mxRectangle width="40" height="40" as="alternateBounds" />
          </mxGeometry>
        </mxCell>
        <mxCell id="S7Eitos9PWXYoLyS1NVI-383" value="" style="shape=tableRow;horizontal=0;startSize=0;swimlaneHead=0;swimlaneBody=0;top=0;left=0;bottom=0;right=0;collapsible=0;dropTarget=0;fillColor=none;points=[[0,0.5],[1,0.5]];portConstraint=eastwest;" parent="S7Eitos9PWXYoLyS1NVI-379" vertex="1">
          <mxGeometry y="40" width="80" height="40" as="geometry" />
        </mxCell>
        <mxCell id="S7Eitos9PWXYoLyS1NVI-384" value="0" style="shape=partialRectangle;html=1;whiteSpace=wrap;connectable=0;overflow=hidden;fillColor=none;top=0;left=0;bottom=0;right=0;pointerEvents=1;" parent="S7Eitos9PWXYoLyS1NVI-383" vertex="1">
          <mxGeometry width="40" height="40" as="geometry">
            <mxRectangle width="40" height="40" as="alternateBounds" />
          </mxGeometry>
        </mxCell>
        <mxCell id="S7Eitos9PWXYoLyS1NVI-385" value="&lt;font color=&quot;#ff0000&quot;&gt;2&lt;/font&gt;" style="shape=partialRectangle;html=1;whiteSpace=wrap;connectable=0;overflow=hidden;fillColor=none;top=0;left=0;bottom=0;right=0;pointerEvents=1;" parent="S7Eitos9PWXYoLyS1NVI-383" vertex="1">
          <mxGeometry x="40" width="40" height="40" as="geometry">
            <mxRectangle width="40" height="40" as="alternateBounds" />
          </mxGeometry>
        </mxCell>
        <mxCell id="S7Eitos9PWXYoLyS1NVI-386" value="" style="shape=tableRow;horizontal=0;startSize=0;swimlaneHead=0;swimlaneBody=0;top=0;left=0;bottom=0;right=0;collapsible=0;dropTarget=0;fillColor=none;points=[[0,0.5],[1,0.5]];portConstraint=eastwest;" parent="S7Eitos9PWXYoLyS1NVI-379" vertex="1">
          <mxGeometry y="80" width="80" height="40" as="geometry" />
        </mxCell>
        <mxCell id="S7Eitos9PWXYoLyS1NVI-387" value="1" style="shape=partialRectangle;html=1;whiteSpace=wrap;connectable=0;overflow=hidden;fillColor=none;top=0;left=0;bottom=0;right=0;pointerEvents=1;" parent="S7Eitos9PWXYoLyS1NVI-386" vertex="1">
          <mxGeometry width="40" height="40" as="geometry">
            <mxRectangle width="40" height="40" as="alternateBounds" />
          </mxGeometry>
        </mxCell>
        <mxCell id="S7Eitos9PWXYoLyS1NVI-388" value="5" style="shape=partialRectangle;html=1;whiteSpace=wrap;connectable=0;overflow=hidden;fillColor=none;top=0;left=0;bottom=0;right=0;pointerEvents=1;" parent="S7Eitos9PWXYoLyS1NVI-386" vertex="1">
          <mxGeometry x="40" width="40" height="40" as="geometry">
            <mxRectangle width="40" height="40" as="alternateBounds" />
          </mxGeometry>
        </mxCell>
        <mxCell id="S7Eitos9PWXYoLyS1NVI-389" value="" style="shape=tableRow;horizontal=0;startSize=0;swimlaneHead=0;swimlaneBody=0;top=0;left=0;bottom=0;right=0;collapsible=0;dropTarget=0;fillColor=none;points=[[0,0.5],[1,0.5]];portConstraint=eastwest;" parent="S7Eitos9PWXYoLyS1NVI-379" vertex="1">
          <mxGeometry y="120" width="80" height="40" as="geometry" />
        </mxCell>
        <mxCell id="S7Eitos9PWXYoLyS1NVI-390" value="2" style="shape=partialRectangle;html=1;whiteSpace=wrap;connectable=0;overflow=hidden;fillColor=none;top=0;left=0;bottom=0;right=0;pointerEvents=1;" parent="S7Eitos9PWXYoLyS1NVI-389" vertex="1">
          <mxGeometry width="40" height="40" as="geometry">
            <mxRectangle width="40" height="40" as="alternateBounds" />
          </mxGeometry>
        </mxCell>
        <mxCell id="S7Eitos9PWXYoLyS1NVI-391" value="&lt;font color=&quot;#ff0000&quot;&gt;1&lt;/font&gt;" style="shape=partialRectangle;html=1;whiteSpace=wrap;connectable=0;overflow=hidden;fillColor=none;top=0;left=0;bottom=0;right=0;pointerEvents=1;" parent="S7Eitos9PWXYoLyS1NVI-389" vertex="1">
          <mxGeometry x="40" width="40" height="40" as="geometry">
            <mxRectangle width="40" height="40" as="alternateBounds" />
          </mxGeometry>
        </mxCell>
        <mxCell id="S7Eitos9PWXYoLyS1NVI-392" value="" style="shape=tableRow;horizontal=0;startSize=0;swimlaneHead=0;swimlaneBody=0;top=0;left=0;bottom=0;right=0;collapsible=0;dropTarget=0;fillColor=none;points=[[0,0.5],[1,0.5]];portConstraint=eastwest;" parent="S7Eitos9PWXYoLyS1NVI-379" vertex="1">
          <mxGeometry y="160" width="80" height="40" as="geometry" />
        </mxCell>
        <mxCell id="S7Eitos9PWXYoLyS1NVI-393" value="3" style="shape=partialRectangle;html=1;whiteSpace=wrap;connectable=0;overflow=hidden;fillColor=none;top=0;left=0;bottom=0;right=0;pointerEvents=1;" parent="S7Eitos9PWXYoLyS1NVI-392" vertex="1">
          <mxGeometry width="40" height="40" as="geometry">
            <mxRectangle width="40" height="40" as="alternateBounds" />
          </mxGeometry>
        </mxCell>
        <mxCell id="S7Eitos9PWXYoLyS1NVI-394" value="4" style="shape=partialRectangle;html=1;whiteSpace=wrap;connectable=0;overflow=hidden;fillColor=none;top=0;left=0;bottom=0;right=0;pointerEvents=1;" parent="S7Eitos9PWXYoLyS1NVI-392" vertex="1">
          <mxGeometry x="40" width="40" height="40" as="geometry">
            <mxRectangle width="40" height="40" as="alternateBounds" />
          </mxGeometry>
        </mxCell>
        <mxCell id="S7Eitos9PWXYoLyS1NVI-395" value="" style="shape=tableRow;horizontal=0;startSize=0;swimlaneHead=0;swimlaneBody=0;top=0;left=0;bottom=0;right=0;collapsible=0;dropTarget=0;fillColor=none;points=[[0,0.5],[1,0.5]];portConstraint=eastwest;" parent="S7Eitos9PWXYoLyS1NVI-379" vertex="1">
          <mxGeometry y="200" width="80" height="40" as="geometry" />
        </mxCell>
        <mxCell id="S7Eitos9PWXYoLyS1NVI-396" value="4" style="shape=partialRectangle;html=1;whiteSpace=wrap;connectable=0;overflow=hidden;fillColor=none;top=0;left=0;bottom=0;right=0;pointerEvents=1;" parent="S7Eitos9PWXYoLyS1NVI-395" vertex="1">
          <mxGeometry width="40" height="40" as="geometry">
            <mxRectangle width="40" height="40" as="alternateBounds" />
          </mxGeometry>
        </mxCell>
        <mxCell id="S7Eitos9PWXYoLyS1NVI-397" value="5" style="shape=partialRectangle;html=1;whiteSpace=wrap;connectable=0;overflow=hidden;fillColor=none;top=0;left=0;bottom=0;right=0;pointerEvents=1;" parent="S7Eitos9PWXYoLyS1NVI-395" vertex="1">
          <mxGeometry x="40" width="40" height="40" as="geometry">
            <mxRectangle width="40" height="40" as="alternateBounds" />
          </mxGeometry>
        </mxCell>
        <mxCell id="S7Eitos9PWXYoLyS1NVI-398" value="" style="shape=tableRow;horizontal=0;startSize=0;swimlaneHead=0;swimlaneBody=0;top=0;left=0;bottom=0;right=0;collapsible=0;dropTarget=0;fillColor=none;points=[[0,0.5],[1,0.5]];portConstraint=eastwest;" parent="S7Eitos9PWXYoLyS1NVI-379" vertex="1">
          <mxGeometry y="240" width="80" height="40" as="geometry" />
        </mxCell>
        <mxCell id="S7Eitos9PWXYoLyS1NVI-399" value="5" style="shape=partialRectangle;html=1;whiteSpace=wrap;connectable=0;overflow=hidden;fillColor=none;top=0;left=0;bottom=0;right=0;pointerEvents=1;" parent="S7Eitos9PWXYoLyS1NVI-398" vertex="1">
          <mxGeometry width="40" height="40" as="geometry">
            <mxRectangle width="40" height="40" as="alternateBounds" />
          </mxGeometry>
        </mxCell>
        <mxCell id="S7Eitos9PWXYoLyS1NVI-400" value="0" style="shape=partialRectangle;html=1;whiteSpace=wrap;connectable=0;overflow=hidden;fillColor=none;top=0;left=0;bottom=0;right=0;pointerEvents=1;" parent="S7Eitos9PWXYoLyS1NVI-398" vertex="1">
          <mxGeometry x="40" width="40" height="40" as="geometry">
            <mxRectangle width="40" height="40" as="alternateBounds" />
          </mxGeometry>
        </mxCell>
        <mxCell id="S7Eitos9PWXYoLyS1NVI-402" value="&lt;font color=&quot;#ffffff&quot;&gt;CF(2)&lt;/font&gt;" style="text;html=1;align=center;verticalAlign=middle;resizable=0;points=[];autosize=1;strokeColor=none;fillColor=none;fontColor=#FF0000;" parent="1" vertex="1">
          <mxGeometry x="615" y="530" width="50" height="20" as="geometry" />
        </mxCell>
        <mxCell id="S7Eitos9PWXYoLyS1NVI-403" value="" style="shape=table;startSize=0;container=1;collapsible=0;childLayout=tableLayout;" parent="1" vertex="1">
          <mxGeometry x="200" y="440" width="80" height="280" as="geometry" />
        </mxCell>
        <mxCell id="S7Eitos9PWXYoLyS1NVI-404" value="" style="shape=tableRow;horizontal=0;startSize=0;swimlaneHead=0;swimlaneBody=0;top=0;left=0;bottom=0;right=0;collapsible=0;dropTarget=0;fillColor=none;points=[[0,0.5],[1,0.5]];portConstraint=eastwest;" parent="S7Eitos9PWXYoLyS1NVI-403" vertex="1">
          <mxGeometry width="80" height="40" as="geometry" />
        </mxCell>
        <mxCell id="S7Eitos9PWXYoLyS1NVI-405" value="Slot" style="shape=partialRectangle;html=1;whiteSpace=wrap;connectable=0;overflow=hidden;fillColor=none;top=0;left=0;bottom=0;right=0;pointerEvents=1;" parent="S7Eitos9PWXYoLyS1NVI-404" vertex="1">
          <mxGeometry width="40" height="40" as="geometry">
            <mxRectangle width="40" height="40" as="alternateBounds" />
          </mxGeometry>
        </mxCell>
        <mxCell id="S7Eitos9PWXYoLyS1NVI-406" value="Next" style="shape=partialRectangle;html=1;whiteSpace=wrap;connectable=0;overflow=hidden;fillColor=none;top=0;left=0;bottom=0;right=0;pointerEvents=1;" parent="S7Eitos9PWXYoLyS1NVI-404" vertex="1">
          <mxGeometry x="40" width="40" height="40" as="geometry">
            <mxRectangle width="40" height="40" as="alternateBounds" />
          </mxGeometry>
        </mxCell>
        <mxCell id="S7Eitos9PWXYoLyS1NVI-407" value="" style="shape=tableRow;horizontal=0;startSize=0;swimlaneHead=0;swimlaneBody=0;top=0;left=0;bottom=0;right=0;collapsible=0;dropTarget=0;fillColor=none;points=[[0,0.5],[1,0.5]];portConstraint=eastwest;" parent="S7Eitos9PWXYoLyS1NVI-403" vertex="1">
          <mxGeometry y="40" width="80" height="40" as="geometry" />
        </mxCell>
        <mxCell id="S7Eitos9PWXYoLyS1NVI-408" value="0" style="shape=partialRectangle;html=1;whiteSpace=wrap;connectable=0;overflow=hidden;fillColor=none;top=0;left=0;bottom=0;right=0;pointerEvents=1;" parent="S7Eitos9PWXYoLyS1NVI-407" vertex="1">
          <mxGeometry width="40" height="40" as="geometry">
            <mxRectangle width="40" height="40" as="alternateBounds" />
          </mxGeometry>
        </mxCell>
        <mxCell id="S7Eitos9PWXYoLyS1NVI-409" value="&lt;font color=&quot;#ff0000&quot;&gt;4&lt;/font&gt;" style="shape=partialRectangle;html=1;whiteSpace=wrap;connectable=0;overflow=hidden;fillColor=none;top=0;left=0;bottom=0;right=0;pointerEvents=1;" parent="S7Eitos9PWXYoLyS1NVI-407" vertex="1">
          <mxGeometry x="40" width="40" height="40" as="geometry">
            <mxRectangle width="40" height="40" as="alternateBounds" />
          </mxGeometry>
        </mxCell>
        <mxCell id="S7Eitos9PWXYoLyS1NVI-410" value="" style="shape=tableRow;horizontal=0;startSize=0;swimlaneHead=0;swimlaneBody=0;top=0;left=0;bottom=0;right=0;collapsible=0;dropTarget=0;fillColor=none;points=[[0,0.5],[1,0.5]];portConstraint=eastwest;" parent="S7Eitos9PWXYoLyS1NVI-403" vertex="1">
          <mxGeometry y="80" width="80" height="40" as="geometry" />
        </mxCell>
        <mxCell id="S7Eitos9PWXYoLyS1NVI-411" value="1" style="shape=partialRectangle;html=1;whiteSpace=wrap;connectable=0;overflow=hidden;fillColor=none;top=0;left=0;bottom=0;right=0;pointerEvents=1;" parent="S7Eitos9PWXYoLyS1NVI-410" vertex="1">
          <mxGeometry width="40" height="40" as="geometry">
            <mxRectangle width="40" height="40" as="alternateBounds" />
          </mxGeometry>
        </mxCell>
        <mxCell id="S7Eitos9PWXYoLyS1NVI-412" value="5" style="shape=partialRectangle;html=1;whiteSpace=wrap;connectable=0;overflow=hidden;fillColor=none;top=0;left=0;bottom=0;right=0;pointerEvents=1;" parent="S7Eitos9PWXYoLyS1NVI-410" vertex="1">
          <mxGeometry x="40" width="40" height="40" as="geometry">
            <mxRectangle width="40" height="40" as="alternateBounds" />
          </mxGeometry>
        </mxCell>
        <mxCell id="S7Eitos9PWXYoLyS1NVI-413" value="" style="shape=tableRow;horizontal=0;startSize=0;swimlaneHead=0;swimlaneBody=0;top=0;left=0;bottom=0;right=0;collapsible=0;dropTarget=0;fillColor=none;points=[[0,0.5],[1,0.5]];portConstraint=eastwest;" parent="S7Eitos9PWXYoLyS1NVI-403" vertex="1">
          <mxGeometry y="120" width="80" height="40" as="geometry" />
        </mxCell>
        <mxCell id="S7Eitos9PWXYoLyS1NVI-414" value="2" style="shape=partialRectangle;html=1;whiteSpace=wrap;connectable=0;overflow=hidden;fillColor=none;top=0;left=0;bottom=0;right=0;pointerEvents=1;" parent="S7Eitos9PWXYoLyS1NVI-413" vertex="1">
          <mxGeometry width="40" height="40" as="geometry">
            <mxRectangle width="40" height="40" as="alternateBounds" />
          </mxGeometry>
        </mxCell>
        <mxCell id="S7Eitos9PWXYoLyS1NVI-415" value="1" style="shape=partialRectangle;html=1;whiteSpace=wrap;connectable=0;overflow=hidden;fillColor=none;top=0;left=0;bottom=0;right=0;pointerEvents=1;" parent="S7Eitos9PWXYoLyS1NVI-413" vertex="1">
          <mxGeometry x="40" width="40" height="40" as="geometry">
            <mxRectangle width="40" height="40" as="alternateBounds" />
          </mxGeometry>
        </mxCell>
        <mxCell id="S7Eitos9PWXYoLyS1NVI-416" value="" style="shape=tableRow;horizontal=0;startSize=0;swimlaneHead=0;swimlaneBody=0;top=0;left=0;bottom=0;right=0;collapsible=0;dropTarget=0;fillColor=none;points=[[0,0.5],[1,0.5]];portConstraint=eastwest;" parent="S7Eitos9PWXYoLyS1NVI-403" vertex="1">
          <mxGeometry y="160" width="80" height="40" as="geometry" />
        </mxCell>
        <mxCell id="S7Eitos9PWXYoLyS1NVI-417" value="3" style="shape=partialRectangle;html=1;whiteSpace=wrap;connectable=0;overflow=hidden;fillColor=none;top=0;left=0;bottom=0;right=0;pointerEvents=1;" parent="S7Eitos9PWXYoLyS1NVI-416" vertex="1">
          <mxGeometry width="40" height="40" as="geometry">
            <mxRectangle width="40" height="40" as="alternateBounds" />
          </mxGeometry>
        </mxCell>
        <mxCell id="S7Eitos9PWXYoLyS1NVI-418" value="2" style="shape=partialRectangle;html=1;whiteSpace=wrap;connectable=0;overflow=hidden;fillColor=none;top=0;left=0;bottom=0;right=0;pointerEvents=1;" parent="S7Eitos9PWXYoLyS1NVI-416" vertex="1">
          <mxGeometry x="40" width="40" height="40" as="geometry">
            <mxRectangle width="40" height="40" as="alternateBounds" />
          </mxGeometry>
        </mxCell>
        <mxCell id="S7Eitos9PWXYoLyS1NVI-419" value="" style="shape=tableRow;horizontal=0;startSize=0;swimlaneHead=0;swimlaneBody=0;top=0;left=0;bottom=0;right=0;collapsible=0;dropTarget=0;fillColor=none;points=[[0,0.5],[1,0.5]];portConstraint=eastwest;" parent="S7Eitos9PWXYoLyS1NVI-403" vertex="1">
          <mxGeometry y="200" width="80" height="40" as="geometry" />
        </mxCell>
        <mxCell id="S7Eitos9PWXYoLyS1NVI-420" value="4" style="shape=partialRectangle;html=1;whiteSpace=wrap;connectable=0;overflow=hidden;fillColor=none;top=0;left=0;bottom=0;right=0;pointerEvents=1;" parent="S7Eitos9PWXYoLyS1NVI-419" vertex="1">
          <mxGeometry width="40" height="40" as="geometry">
            <mxRectangle width="40" height="40" as="alternateBounds" />
          </mxGeometry>
        </mxCell>
        <mxCell id="S7Eitos9PWXYoLyS1NVI-421" value="&lt;font color=&quot;#ff0000&quot;&gt;3&lt;/font&gt;" style="shape=partialRectangle;html=1;whiteSpace=wrap;connectable=0;overflow=hidden;fillColor=none;top=0;left=0;bottom=0;right=0;pointerEvents=1;" parent="S7Eitos9PWXYoLyS1NVI-419" vertex="1">
          <mxGeometry x="40" width="40" height="40" as="geometry">
            <mxRectangle width="40" height="40" as="alternateBounds" />
          </mxGeometry>
        </mxCell>
        <mxCell id="S7Eitos9PWXYoLyS1NVI-422" value="" style="shape=tableRow;horizontal=0;startSize=0;swimlaneHead=0;swimlaneBody=0;top=0;left=0;bottom=0;right=0;collapsible=0;dropTarget=0;fillColor=none;points=[[0,0.5],[1,0.5]];portConstraint=eastwest;" parent="S7Eitos9PWXYoLyS1NVI-403" vertex="1">
          <mxGeometry y="240" width="80" height="40" as="geometry" />
        </mxCell>
        <mxCell id="S7Eitos9PWXYoLyS1NVI-423" value="5" style="shape=partialRectangle;html=1;whiteSpace=wrap;connectable=0;overflow=hidden;fillColor=none;top=0;left=0;bottom=0;right=0;pointerEvents=1;" parent="S7Eitos9PWXYoLyS1NVI-422" vertex="1">
          <mxGeometry width="40" height="40" as="geometry">
            <mxRectangle width="40" height="40" as="alternateBounds" />
          </mxGeometry>
        </mxCell>
        <mxCell id="S7Eitos9PWXYoLyS1NVI-424" value="0" style="shape=partialRectangle;html=1;whiteSpace=wrap;connectable=0;overflow=hidden;fillColor=none;top=0;left=0;bottom=0;right=0;pointerEvents=1;" parent="S7Eitos9PWXYoLyS1NVI-422" vertex="1">
          <mxGeometry x="40" width="40" height="40" as="geometry">
            <mxRectangle width="40" height="40" as="alternateBounds" />
          </mxGeometry>
        </mxCell>
        <mxCell id="S7Eitos9PWXYoLyS1NVI-425" value="" style="shape=table;startSize=0;container=1;collapsible=0;childLayout=tableLayout;" parent="1" vertex="1">
          <mxGeometry x="360" y="440" width="80" height="280" as="geometry" />
        </mxCell>
        <mxCell id="S7Eitos9PWXYoLyS1NVI-426" value="" style="shape=tableRow;horizontal=0;startSize=0;swimlaneHead=0;swimlaneBody=0;top=0;left=0;bottom=0;right=0;collapsible=0;dropTarget=0;fillColor=none;points=[[0,0.5],[1,0.5]];portConstraint=eastwest;" parent="S7Eitos9PWXYoLyS1NVI-425" vertex="1">
          <mxGeometry width="80" height="40" as="geometry" />
        </mxCell>
        <mxCell id="S7Eitos9PWXYoLyS1NVI-427" value="Slot" style="shape=partialRectangle;html=1;whiteSpace=wrap;connectable=0;overflow=hidden;fillColor=none;top=0;left=0;bottom=0;right=0;pointerEvents=1;" parent="S7Eitos9PWXYoLyS1NVI-426" vertex="1">
          <mxGeometry width="40" height="40" as="geometry">
            <mxRectangle width="40" height="40" as="alternateBounds" />
          </mxGeometry>
        </mxCell>
        <mxCell id="S7Eitos9PWXYoLyS1NVI-428" value="Next" style="shape=partialRectangle;html=1;whiteSpace=wrap;connectable=0;overflow=hidden;fillColor=none;top=0;left=0;bottom=0;right=0;pointerEvents=1;" parent="S7Eitos9PWXYoLyS1NVI-426" vertex="1">
          <mxGeometry x="40" width="40" height="40" as="geometry">
            <mxRectangle width="40" height="40" as="alternateBounds" />
          </mxGeometry>
        </mxCell>
        <mxCell id="S7Eitos9PWXYoLyS1NVI-429" value="" style="shape=tableRow;horizontal=0;startSize=0;swimlaneHead=0;swimlaneBody=0;top=0;left=0;bottom=0;right=0;collapsible=0;dropTarget=0;fillColor=none;points=[[0,0.5],[1,0.5]];portConstraint=eastwest;" parent="S7Eitos9PWXYoLyS1NVI-425" vertex="1">
          <mxGeometry y="40" width="80" height="40" as="geometry" />
        </mxCell>
        <mxCell id="S7Eitos9PWXYoLyS1NVI-430" value="0" style="shape=partialRectangle;html=1;whiteSpace=wrap;connectable=0;overflow=hidden;fillColor=none;top=0;left=0;bottom=0;right=0;pointerEvents=1;" parent="S7Eitos9PWXYoLyS1NVI-429" vertex="1">
          <mxGeometry width="40" height="40" as="geometry">
            <mxRectangle width="40" height="40" as="alternateBounds" />
          </mxGeometry>
        </mxCell>
        <mxCell id="S7Eitos9PWXYoLyS1NVI-431" value="&lt;font color=&quot;#ff0000&quot;&gt;3&lt;/font&gt;" style="shape=partialRectangle;html=1;whiteSpace=wrap;connectable=0;overflow=hidden;fillColor=none;top=0;left=0;bottom=0;right=0;pointerEvents=1;" parent="S7Eitos9PWXYoLyS1NVI-429" vertex="1">
          <mxGeometry x="40" width="40" height="40" as="geometry">
            <mxRectangle width="40" height="40" as="alternateBounds" />
          </mxGeometry>
        </mxCell>
        <mxCell id="S7Eitos9PWXYoLyS1NVI-432" value="" style="shape=tableRow;horizontal=0;startSize=0;swimlaneHead=0;swimlaneBody=0;top=0;left=0;bottom=0;right=0;collapsible=0;dropTarget=0;fillColor=none;points=[[0,0.5],[1,0.5]];portConstraint=eastwest;" parent="S7Eitos9PWXYoLyS1NVI-425" vertex="1">
          <mxGeometry y="80" width="80" height="40" as="geometry" />
        </mxCell>
        <mxCell id="S7Eitos9PWXYoLyS1NVI-433" value="1" style="shape=partialRectangle;html=1;whiteSpace=wrap;connectable=0;overflow=hidden;fillColor=none;top=0;left=0;bottom=0;right=0;pointerEvents=1;" parent="S7Eitos9PWXYoLyS1NVI-432" vertex="1">
          <mxGeometry width="40" height="40" as="geometry">
            <mxRectangle width="40" height="40" as="alternateBounds" />
          </mxGeometry>
        </mxCell>
        <mxCell id="S7Eitos9PWXYoLyS1NVI-434" value="5" style="shape=partialRectangle;html=1;whiteSpace=wrap;connectable=0;overflow=hidden;fillColor=none;top=0;left=0;bottom=0;right=0;pointerEvents=1;" parent="S7Eitos9PWXYoLyS1NVI-432" vertex="1">
          <mxGeometry x="40" width="40" height="40" as="geometry">
            <mxRectangle width="40" height="40" as="alternateBounds" />
          </mxGeometry>
        </mxCell>
        <mxCell id="S7Eitos9PWXYoLyS1NVI-435" value="" style="shape=tableRow;horizontal=0;startSize=0;swimlaneHead=0;swimlaneBody=0;top=0;left=0;bottom=0;right=0;collapsible=0;dropTarget=0;fillColor=none;points=[[0,0.5],[1,0.5]];portConstraint=eastwest;" parent="S7Eitos9PWXYoLyS1NVI-425" vertex="1">
          <mxGeometry y="120" width="80" height="40" as="geometry" />
        </mxCell>
        <mxCell id="S7Eitos9PWXYoLyS1NVI-436" value="2" style="shape=partialRectangle;html=1;whiteSpace=wrap;connectable=0;overflow=hidden;fillColor=none;top=0;left=0;bottom=0;right=0;pointerEvents=1;" parent="S7Eitos9PWXYoLyS1NVI-435" vertex="1">
          <mxGeometry width="40" height="40" as="geometry">
            <mxRectangle width="40" height="40" as="alternateBounds" />
          </mxGeometry>
        </mxCell>
        <mxCell id="S7Eitos9PWXYoLyS1NVI-437" value="1" style="shape=partialRectangle;html=1;whiteSpace=wrap;connectable=0;overflow=hidden;fillColor=none;top=0;left=0;bottom=0;right=0;pointerEvents=1;" parent="S7Eitos9PWXYoLyS1NVI-435" vertex="1">
          <mxGeometry x="40" width="40" height="40" as="geometry">
            <mxRectangle width="40" height="40" as="alternateBounds" />
          </mxGeometry>
        </mxCell>
        <mxCell id="S7Eitos9PWXYoLyS1NVI-438" value="" style="shape=tableRow;horizontal=0;startSize=0;swimlaneHead=0;swimlaneBody=0;top=0;left=0;bottom=0;right=0;collapsible=0;dropTarget=0;fillColor=none;points=[[0,0.5],[1,0.5]];portConstraint=eastwest;" parent="S7Eitos9PWXYoLyS1NVI-425" vertex="1">
          <mxGeometry y="160" width="80" height="40" as="geometry" />
        </mxCell>
        <mxCell id="S7Eitos9PWXYoLyS1NVI-439" value="3" style="shape=partialRectangle;html=1;whiteSpace=wrap;connectable=0;overflow=hidden;fillColor=none;top=0;left=0;bottom=0;right=0;pointerEvents=1;" parent="S7Eitos9PWXYoLyS1NVI-438" vertex="1">
          <mxGeometry width="40" height="40" as="geometry">
            <mxRectangle width="40" height="40" as="alternateBounds" />
          </mxGeometry>
        </mxCell>
        <mxCell id="S7Eitos9PWXYoLyS1NVI-440" value="&lt;font color=&quot;#ff0000&quot;&gt;2&lt;/font&gt;" style="shape=partialRectangle;html=1;whiteSpace=wrap;connectable=0;overflow=hidden;fillColor=none;top=0;left=0;bottom=0;right=0;pointerEvents=1;" parent="S7Eitos9PWXYoLyS1NVI-438" vertex="1">
          <mxGeometry x="40" width="40" height="40" as="geometry">
            <mxRectangle width="40" height="40" as="alternateBounds" />
          </mxGeometry>
        </mxCell>
        <mxCell id="S7Eitos9PWXYoLyS1NVI-441" value="" style="shape=tableRow;horizontal=0;startSize=0;swimlaneHead=0;swimlaneBody=0;top=0;left=0;bottom=0;right=0;collapsible=0;dropTarget=0;fillColor=none;points=[[0,0.5],[1,0.5]];portConstraint=eastwest;" parent="S7Eitos9PWXYoLyS1NVI-425" vertex="1">
          <mxGeometry y="200" width="80" height="40" as="geometry" />
        </mxCell>
        <mxCell id="S7Eitos9PWXYoLyS1NVI-442" value="4" style="shape=partialRectangle;html=1;whiteSpace=wrap;connectable=0;overflow=hidden;fillColor=none;top=0;left=0;bottom=0;right=0;pointerEvents=1;" parent="S7Eitos9PWXYoLyS1NVI-441" vertex="1">
          <mxGeometry width="40" height="40" as="geometry">
            <mxRectangle width="40" height="40" as="alternateBounds" />
          </mxGeometry>
        </mxCell>
        <mxCell id="S7Eitos9PWXYoLyS1NVI-443" value="5" style="shape=partialRectangle;html=1;whiteSpace=wrap;connectable=0;overflow=hidden;fillColor=none;top=0;left=0;bottom=0;right=0;pointerEvents=1;" parent="S7Eitos9PWXYoLyS1NVI-441" vertex="1">
          <mxGeometry x="40" width="40" height="40" as="geometry">
            <mxRectangle width="40" height="40" as="alternateBounds" />
          </mxGeometry>
        </mxCell>
        <mxCell id="S7Eitos9PWXYoLyS1NVI-444" value="" style="shape=tableRow;horizontal=0;startSize=0;swimlaneHead=0;swimlaneBody=0;top=0;left=0;bottom=0;right=0;collapsible=0;dropTarget=0;fillColor=none;points=[[0,0.5],[1,0.5]];portConstraint=eastwest;" parent="S7Eitos9PWXYoLyS1NVI-425" vertex="1">
          <mxGeometry y="240" width="80" height="40" as="geometry" />
        </mxCell>
        <mxCell id="S7Eitos9PWXYoLyS1NVI-445" value="5" style="shape=partialRectangle;html=1;whiteSpace=wrap;connectable=0;overflow=hidden;fillColor=none;top=0;left=0;bottom=0;right=0;pointerEvents=1;" parent="S7Eitos9PWXYoLyS1NVI-444" vertex="1">
          <mxGeometry width="40" height="40" as="geometry">
            <mxRectangle width="40" height="40" as="alternateBounds" />
          </mxGeometry>
        </mxCell>
        <mxCell id="S7Eitos9PWXYoLyS1NVI-446" value="0" style="shape=partialRectangle;html=1;whiteSpace=wrap;connectable=0;overflow=hidden;fillColor=none;top=0;left=0;bottom=0;right=0;pointerEvents=1;" parent="S7Eitos9PWXYoLyS1NVI-444" vertex="1">
          <mxGeometry x="40" width="40" height="40" as="geometry">
            <mxRectangle width="40" height="40" as="alternateBounds" />
          </mxGeometry>
        </mxCell>
        <mxCell id="S7Eitos9PWXYoLyS1NVI-447" value="&lt;font color=&quot;#ffffff&quot;&gt;CF(4)&lt;/font&gt;" style="text;html=1;align=center;verticalAlign=middle;resizable=0;points=[];autosize=1;strokeColor=none;fillColor=none;fontColor=#FF0000;" parent="1" vertex="1">
          <mxGeometry x="295" y="530" width="50" height="20" as="geometry" />
        </mxCell>
        <mxCell id="S7Eitos9PWXYoLyS1NVI-448" value="&lt;font color=&quot;#ffffff&quot;&gt;CF(3)&lt;/font&gt;" style="text;html=1;align=center;verticalAlign=middle;resizable=0;points=[];autosize=1;strokeColor=none;fillColor=none;fontColor=#FF0000;" parent="1" vertex="1">
          <mxGeometry x="455" y="530" width="50" height="20" as="geometry" />
        </mxCell>
        <mxCell id="S7Eitos9PWXYoLyS1NVI-449" value="" style="shape=singleArrow;whiteSpace=wrap;html=1;fontColor=#FF0000;arrowWidth=0.25769230769231993;arrowSize=0.4076923076923151;direction=west;" parent="1" vertex="1">
          <mxGeometry x="460" y="555" width="40" height="20" as="geometry" />
        </mxCell>
        <mxCell id="S7Eitos9PWXYoLyS1NVI-450" value="" style="shape=singleArrow;whiteSpace=wrap;html=1;fontColor=#FF0000;arrowWidth=0.25769230769231993;arrowSize=0.4076923076923151;direction=west;" parent="1" vertex="1">
          <mxGeometry x="300" y="555" width="40" height="20" as="geometry" />
        </mxCell>
        <mxCell id="S7Eitos9PWXYoLyS1NVI-451" value="" style="shape=table;startSize=0;container=1;collapsible=0;childLayout=tableLayout;" parent="1" vertex="1">
          <mxGeometry x="840" y="80" width="80" height="280" as="geometry" />
        </mxCell>
        <mxCell id="S7Eitos9PWXYoLyS1NVI-452" value="" style="shape=tableRow;horizontal=0;startSize=0;swimlaneHead=0;swimlaneBody=0;top=0;left=0;bottom=0;right=0;collapsible=0;dropTarget=0;fillColor=none;points=[[0,0.5],[1,0.5]];portConstraint=eastwest;" parent="S7Eitos9PWXYoLyS1NVI-451" vertex="1">
          <mxGeometry width="80" height="40" as="geometry" />
        </mxCell>
        <mxCell id="S7Eitos9PWXYoLyS1NVI-453" value="Slot" style="shape=partialRectangle;html=1;whiteSpace=wrap;connectable=0;overflow=hidden;fillColor=none;top=0;left=0;bottom=0;right=0;pointerEvents=1;" parent="S7Eitos9PWXYoLyS1NVI-452" vertex="1">
          <mxGeometry width="40" height="40" as="geometry">
            <mxRectangle width="40" height="40" as="alternateBounds" />
          </mxGeometry>
        </mxCell>
        <mxCell id="S7Eitos9PWXYoLyS1NVI-454" value="Next" style="shape=partialRectangle;html=1;whiteSpace=wrap;connectable=0;overflow=hidden;fillColor=none;top=0;left=0;bottom=0;right=0;pointerEvents=1;" parent="S7Eitos9PWXYoLyS1NVI-452" vertex="1">
          <mxGeometry x="40" width="40" height="40" as="geometry">
            <mxRectangle width="40" height="40" as="alternateBounds" />
          </mxGeometry>
        </mxCell>
        <mxCell id="S7Eitos9PWXYoLyS1NVI-455" value="" style="shape=tableRow;horizontal=0;startSize=0;swimlaneHead=0;swimlaneBody=0;top=0;left=0;bottom=0;right=0;collapsible=0;dropTarget=0;fillColor=none;points=[[0,0.5],[1,0.5]];portConstraint=eastwest;" parent="S7Eitos9PWXYoLyS1NVI-451" vertex="1">
          <mxGeometry y="40" width="80" height="40" as="geometry" />
        </mxCell>
        <mxCell id="S7Eitos9PWXYoLyS1NVI-456" value="0" style="shape=partialRectangle;html=1;whiteSpace=wrap;connectable=0;overflow=hidden;fillColor=none;top=0;left=0;bottom=0;right=0;pointerEvents=1;" parent="S7Eitos9PWXYoLyS1NVI-455" vertex="1">
          <mxGeometry width="40" height="40" as="geometry">
            <mxRectangle width="40" height="40" as="alternateBounds" />
          </mxGeometry>
        </mxCell>
        <mxCell id="S7Eitos9PWXYoLyS1NVI-457" value="&lt;font color=&quot;#ff0000&quot;&gt;0&lt;/font&gt;" style="shape=partialRectangle;html=1;whiteSpace=wrap;connectable=0;overflow=hidden;fillColor=none;top=0;left=0;bottom=0;right=0;pointerEvents=1;" parent="S7Eitos9PWXYoLyS1NVI-455" vertex="1">
          <mxGeometry x="40" width="40" height="40" as="geometry">
            <mxRectangle width="40" height="40" as="alternateBounds" />
          </mxGeometry>
        </mxCell>
        <mxCell id="S7Eitos9PWXYoLyS1NVI-458" value="" style="shape=tableRow;horizontal=0;startSize=0;swimlaneHead=0;swimlaneBody=0;top=0;left=0;bottom=0;right=0;collapsible=0;dropTarget=0;fillColor=none;points=[[0,0.5],[1,0.5]];portConstraint=eastwest;" parent="S7Eitos9PWXYoLyS1NVI-451" vertex="1">
          <mxGeometry y="80" width="80" height="40" as="geometry" />
        </mxCell>
        <mxCell id="S7Eitos9PWXYoLyS1NVI-459" value="1" style="shape=partialRectangle;html=1;whiteSpace=wrap;connectable=0;overflow=hidden;fillColor=none;top=0;left=0;bottom=0;right=0;pointerEvents=1;" parent="S7Eitos9PWXYoLyS1NVI-458" vertex="1">
          <mxGeometry width="40" height="40" as="geometry">
            <mxRectangle width="40" height="40" as="alternateBounds" />
          </mxGeometry>
        </mxCell>
        <mxCell id="S7Eitos9PWXYoLyS1NVI-460" value="2" style="shape=partialRectangle;html=1;whiteSpace=wrap;connectable=0;overflow=hidden;fillColor=none;top=0;left=0;bottom=0;right=0;pointerEvents=1;" parent="S7Eitos9PWXYoLyS1NVI-458" vertex="1">
          <mxGeometry x="40" width="40" height="40" as="geometry">
            <mxRectangle width="40" height="40" as="alternateBounds" />
          </mxGeometry>
        </mxCell>
        <mxCell id="S7Eitos9PWXYoLyS1NVI-461" value="" style="shape=tableRow;horizontal=0;startSize=0;swimlaneHead=0;swimlaneBody=0;top=0;left=0;bottom=0;right=0;collapsible=0;dropTarget=0;fillColor=none;points=[[0,0.5],[1,0.5]];portConstraint=eastwest;" parent="S7Eitos9PWXYoLyS1NVI-451" vertex="1">
          <mxGeometry y="120" width="80" height="40" as="geometry" />
        </mxCell>
        <mxCell id="S7Eitos9PWXYoLyS1NVI-462" value="2" style="shape=partialRectangle;html=1;whiteSpace=wrap;connectable=0;overflow=hidden;fillColor=none;top=0;left=0;bottom=0;right=0;pointerEvents=1;" parent="S7Eitos9PWXYoLyS1NVI-461" vertex="1">
          <mxGeometry width="40" height="40" as="geometry">
            <mxRectangle width="40" height="40" as="alternateBounds" />
          </mxGeometry>
        </mxCell>
        <mxCell id="S7Eitos9PWXYoLyS1NVI-463" value="3" style="shape=partialRectangle;html=1;whiteSpace=wrap;connectable=0;overflow=hidden;fillColor=none;top=0;left=0;bottom=0;right=0;pointerEvents=1;" parent="S7Eitos9PWXYoLyS1NVI-461" vertex="1">
          <mxGeometry x="40" width="40" height="40" as="geometry">
            <mxRectangle width="40" height="40" as="alternateBounds" />
          </mxGeometry>
        </mxCell>
        <mxCell id="S7Eitos9PWXYoLyS1NVI-464" value="" style="shape=tableRow;horizontal=0;startSize=0;swimlaneHead=0;swimlaneBody=0;top=0;left=0;bottom=0;right=0;collapsible=0;dropTarget=0;fillColor=none;points=[[0,0.5],[1,0.5]];portConstraint=eastwest;" parent="S7Eitos9PWXYoLyS1NVI-451" vertex="1">
          <mxGeometry y="160" width="80" height="40" as="geometry" />
        </mxCell>
        <mxCell id="S7Eitos9PWXYoLyS1NVI-465" value="3" style="shape=partialRectangle;html=1;whiteSpace=wrap;connectable=0;overflow=hidden;fillColor=none;top=0;left=0;bottom=0;right=0;pointerEvents=1;" parent="S7Eitos9PWXYoLyS1NVI-464" vertex="1">
          <mxGeometry width="40" height="40" as="geometry">
            <mxRectangle width="40" height="40" as="alternateBounds" />
          </mxGeometry>
        </mxCell>
        <mxCell id="S7Eitos9PWXYoLyS1NVI-466" value="4" style="shape=partialRectangle;html=1;whiteSpace=wrap;connectable=0;overflow=hidden;fillColor=none;top=0;left=0;bottom=0;right=0;pointerEvents=1;" parent="S7Eitos9PWXYoLyS1NVI-464" vertex="1">
          <mxGeometry x="40" width="40" height="40" as="geometry">
            <mxRectangle width="40" height="40" as="alternateBounds" />
          </mxGeometry>
        </mxCell>
        <mxCell id="S7Eitos9PWXYoLyS1NVI-467" value="" style="shape=tableRow;horizontal=0;startSize=0;swimlaneHead=0;swimlaneBody=0;top=0;left=0;bottom=0;right=0;collapsible=0;dropTarget=0;fillColor=none;points=[[0,0.5],[1,0.5]];portConstraint=eastwest;" parent="S7Eitos9PWXYoLyS1NVI-451" vertex="1">
          <mxGeometry y="200" width="80" height="40" as="geometry" />
        </mxCell>
        <mxCell id="S7Eitos9PWXYoLyS1NVI-468" value="4" style="shape=partialRectangle;html=1;whiteSpace=wrap;connectable=0;overflow=hidden;fillColor=none;top=0;left=0;bottom=0;right=0;pointerEvents=1;" parent="S7Eitos9PWXYoLyS1NVI-467" vertex="1">
          <mxGeometry width="40" height="40" as="geometry">
            <mxRectangle width="40" height="40" as="alternateBounds" />
          </mxGeometry>
        </mxCell>
        <mxCell id="S7Eitos9PWXYoLyS1NVI-469" value="5" style="shape=partialRectangle;html=1;whiteSpace=wrap;connectable=0;overflow=hidden;fillColor=none;top=0;left=0;bottom=0;right=0;pointerEvents=1;" parent="S7Eitos9PWXYoLyS1NVI-467" vertex="1">
          <mxGeometry x="40" width="40" height="40" as="geometry">
            <mxRectangle width="40" height="40" as="alternateBounds" />
          </mxGeometry>
        </mxCell>
        <mxCell id="S7Eitos9PWXYoLyS1NVI-470" value="" style="shape=tableRow;horizontal=0;startSize=0;swimlaneHead=0;swimlaneBody=0;top=0;left=0;bottom=0;right=0;collapsible=0;dropTarget=0;fillColor=none;points=[[0,0.5],[1,0.5]];portConstraint=eastwest;" parent="S7Eitos9PWXYoLyS1NVI-451" vertex="1">
          <mxGeometry y="240" width="80" height="40" as="geometry" />
        </mxCell>
        <mxCell id="S7Eitos9PWXYoLyS1NVI-471" value="5" style="shape=partialRectangle;html=1;whiteSpace=wrap;connectable=0;overflow=hidden;fillColor=none;top=0;left=0;bottom=0;right=0;pointerEvents=1;" parent="S7Eitos9PWXYoLyS1NVI-470" vertex="1">
          <mxGeometry width="40" height="40" as="geometry">
            <mxRectangle width="40" height="40" as="alternateBounds" />
          </mxGeometry>
        </mxCell>
        <mxCell id="S7Eitos9PWXYoLyS1NVI-472" value="0" style="shape=partialRectangle;html=1;whiteSpace=wrap;connectable=0;overflow=hidden;fillColor=none;top=0;left=0;bottom=0;right=0;pointerEvents=1;" parent="S7Eitos9PWXYoLyS1NVI-470" vertex="1">
          <mxGeometry x="40" width="40" height="40" as="geometry">
            <mxRectangle width="40" height="40" as="alternateBounds" />
          </mxGeometry>
        </mxCell>
        <mxCell id="S7Eitos9PWXYoLyS1NVI-473" value="CA" style="text;html=1;align=center;verticalAlign=middle;resizable=0;points=[];autosize=1;strokeColor=none;fillColor=none;" parent="1" vertex="1">
          <mxGeometry x="785" y="190" width="30" height="20" as="geometry" />
        </mxCell>
        <mxCell id="S7Eitos9PWXYoLyS1NVI-474" value="" style="shape=singleArrow;whiteSpace=wrap;html=1;fontColor=#FF0000;arrowWidth=0.25769230769231993;arrowSize=0.4076923076923151;" parent="1" vertex="1">
          <mxGeometry x="780" y="210" width="40" height="20" as="geometry" />
        </mxCell>
        <mxCell id="S7Eitos9PWXYoLyS1NVI-475" value="&lt;font color=&quot;#ffffff&quot;&gt;CF(3)&lt;/font&gt;" style="text;html=1;align=center;verticalAlign=middle;resizable=0;points=[];autosize=1;strokeColor=none;fillColor=none;fontColor=#FF0000;" parent="1" vertex="1">
          <mxGeometry x="940" y="190" width="50" height="20" as="geometry" />
        </mxCell>
        <mxCell id="S7Eitos9PWXYoLyS1NVI-477" value="" style="shape=singleArrow;whiteSpace=wrap;html=1;fontColor=#FF0000;arrowWidth=0.25769230769231993;arrowSize=0.4076923076923151;" parent="1" vertex="1">
          <mxGeometry x="945" y="210" width="40" height="20" as="geometry" />
        </mxCell>
        <mxCell id="S7Eitos9PWXYoLyS1NVI-478" value="" style="shape=table;startSize=0;container=1;collapsible=0;childLayout=tableLayout;" parent="1" vertex="1">
          <mxGeometry x="1000" y="80" width="80" height="280" as="geometry" />
        </mxCell>
        <mxCell id="S7Eitos9PWXYoLyS1NVI-479" value="" style="shape=tableRow;horizontal=0;startSize=0;swimlaneHead=0;swimlaneBody=0;top=0;left=0;bottom=0;right=0;collapsible=0;dropTarget=0;fillColor=none;points=[[0,0.5],[1,0.5]];portConstraint=eastwest;" parent="S7Eitos9PWXYoLyS1NVI-478" vertex="1">
          <mxGeometry width="80" height="40" as="geometry" />
        </mxCell>
        <mxCell id="S7Eitos9PWXYoLyS1NVI-480" value="Slot" style="shape=partialRectangle;html=1;whiteSpace=wrap;connectable=0;overflow=hidden;fillColor=none;top=0;left=0;bottom=0;right=0;pointerEvents=1;" parent="S7Eitos9PWXYoLyS1NVI-479" vertex="1">
          <mxGeometry width="40" height="40" as="geometry">
            <mxRectangle width="40" height="40" as="alternateBounds" />
          </mxGeometry>
        </mxCell>
        <mxCell id="S7Eitos9PWXYoLyS1NVI-481" value="Next" style="shape=partialRectangle;html=1;whiteSpace=wrap;connectable=0;overflow=hidden;fillColor=none;top=0;left=0;bottom=0;right=0;pointerEvents=1;" parent="S7Eitos9PWXYoLyS1NVI-479" vertex="1">
          <mxGeometry x="40" width="40" height="40" as="geometry">
            <mxRectangle width="40" height="40" as="alternateBounds" />
          </mxGeometry>
        </mxCell>
        <mxCell id="S7Eitos9PWXYoLyS1NVI-482" value="" style="shape=tableRow;horizontal=0;startSize=0;swimlaneHead=0;swimlaneBody=0;top=0;left=0;bottom=0;right=0;collapsible=0;dropTarget=0;fillColor=none;points=[[0,0.5],[1,0.5]];portConstraint=eastwest;" parent="S7Eitos9PWXYoLyS1NVI-478" vertex="1">
          <mxGeometry y="40" width="80" height="40" as="geometry" />
        </mxCell>
        <mxCell id="S7Eitos9PWXYoLyS1NVI-483" value="0" style="shape=partialRectangle;html=1;whiteSpace=wrap;connectable=0;overflow=hidden;fillColor=none;top=0;left=0;bottom=0;right=0;pointerEvents=1;" parent="S7Eitos9PWXYoLyS1NVI-482" vertex="1">
          <mxGeometry width="40" height="40" as="geometry">
            <mxRectangle width="40" height="40" as="alternateBounds" />
          </mxGeometry>
        </mxCell>
        <mxCell id="S7Eitos9PWXYoLyS1NVI-484" value="&lt;font color=&quot;#ff0000&quot;&gt;3&lt;/font&gt;" style="shape=partialRectangle;html=1;whiteSpace=wrap;connectable=0;overflow=hidden;fillColor=none;top=0;left=0;bottom=0;right=0;pointerEvents=1;" parent="S7Eitos9PWXYoLyS1NVI-482" vertex="1">
          <mxGeometry x="40" width="40" height="40" as="geometry">
            <mxRectangle width="40" height="40" as="alternateBounds" />
          </mxGeometry>
        </mxCell>
        <mxCell id="S7Eitos9PWXYoLyS1NVI-485" value="" style="shape=tableRow;horizontal=0;startSize=0;swimlaneHead=0;swimlaneBody=0;top=0;left=0;bottom=0;right=0;collapsible=0;dropTarget=0;fillColor=none;points=[[0,0.5],[1,0.5]];portConstraint=eastwest;" parent="S7Eitos9PWXYoLyS1NVI-478" vertex="1">
          <mxGeometry y="80" width="80" height="40" as="geometry" />
        </mxCell>
        <mxCell id="S7Eitos9PWXYoLyS1NVI-486" value="1" style="shape=partialRectangle;html=1;whiteSpace=wrap;connectable=0;overflow=hidden;fillColor=none;top=0;left=0;bottom=0;right=0;pointerEvents=1;" parent="S7Eitos9PWXYoLyS1NVI-485" vertex="1">
          <mxGeometry width="40" height="40" as="geometry">
            <mxRectangle width="40" height="40" as="alternateBounds" />
          </mxGeometry>
        </mxCell>
        <mxCell id="S7Eitos9PWXYoLyS1NVI-487" value="2" style="shape=partialRectangle;html=1;whiteSpace=wrap;connectable=0;overflow=hidden;fillColor=none;top=0;left=0;bottom=0;right=0;pointerEvents=1;" parent="S7Eitos9PWXYoLyS1NVI-485" vertex="1">
          <mxGeometry x="40" width="40" height="40" as="geometry">
            <mxRectangle width="40" height="40" as="alternateBounds" />
          </mxGeometry>
        </mxCell>
        <mxCell id="S7Eitos9PWXYoLyS1NVI-488" value="" style="shape=tableRow;horizontal=0;startSize=0;swimlaneHead=0;swimlaneBody=0;top=0;left=0;bottom=0;right=0;collapsible=0;dropTarget=0;fillColor=none;points=[[0,0.5],[1,0.5]];portConstraint=eastwest;" parent="S7Eitos9PWXYoLyS1NVI-478" vertex="1">
          <mxGeometry y="120" width="80" height="40" as="geometry" />
        </mxCell>
        <mxCell id="S7Eitos9PWXYoLyS1NVI-489" value="2" style="shape=partialRectangle;html=1;whiteSpace=wrap;connectable=0;overflow=hidden;fillColor=none;top=0;left=0;bottom=0;right=0;pointerEvents=1;" parent="S7Eitos9PWXYoLyS1NVI-488" vertex="1">
          <mxGeometry width="40" height="40" as="geometry">
            <mxRectangle width="40" height="40" as="alternateBounds" />
          </mxGeometry>
        </mxCell>
        <mxCell id="S7Eitos9PWXYoLyS1NVI-490" value="3" style="shape=partialRectangle;html=1;whiteSpace=wrap;connectable=0;overflow=hidden;fillColor=none;top=0;left=0;bottom=0;right=0;pointerEvents=1;" parent="S7Eitos9PWXYoLyS1NVI-488" vertex="1">
          <mxGeometry x="40" width="40" height="40" as="geometry">
            <mxRectangle width="40" height="40" as="alternateBounds" />
          </mxGeometry>
        </mxCell>
        <mxCell id="S7Eitos9PWXYoLyS1NVI-491" value="" style="shape=tableRow;horizontal=0;startSize=0;swimlaneHead=0;swimlaneBody=0;top=0;left=0;bottom=0;right=0;collapsible=0;dropTarget=0;fillColor=none;points=[[0,0.5],[1,0.5]];portConstraint=eastwest;" parent="S7Eitos9PWXYoLyS1NVI-478" vertex="1">
          <mxGeometry y="160" width="80" height="40" as="geometry" />
        </mxCell>
        <mxCell id="S7Eitos9PWXYoLyS1NVI-492" value="3" style="shape=partialRectangle;html=1;whiteSpace=wrap;connectable=0;overflow=hidden;fillColor=none;top=0;left=0;bottom=0;right=0;pointerEvents=1;" parent="S7Eitos9PWXYoLyS1NVI-491" vertex="1">
          <mxGeometry width="40" height="40" as="geometry">
            <mxRectangle width="40" height="40" as="alternateBounds" />
          </mxGeometry>
        </mxCell>
        <mxCell id="S7Eitos9PWXYoLyS1NVI-493" value="&lt;font color=&quot;#ff0000&quot;&gt;0&lt;/font&gt;" style="shape=partialRectangle;html=1;whiteSpace=wrap;connectable=0;overflow=hidden;fillColor=none;top=0;left=0;bottom=0;right=0;pointerEvents=1;" parent="S7Eitos9PWXYoLyS1NVI-491" vertex="1">
          <mxGeometry x="40" width="40" height="40" as="geometry">
            <mxRectangle width="40" height="40" as="alternateBounds" />
          </mxGeometry>
        </mxCell>
        <mxCell id="S7Eitos9PWXYoLyS1NVI-494" value="" style="shape=tableRow;horizontal=0;startSize=0;swimlaneHead=0;swimlaneBody=0;top=0;left=0;bottom=0;right=0;collapsible=0;dropTarget=0;fillColor=none;points=[[0,0.5],[1,0.5]];portConstraint=eastwest;" parent="S7Eitos9PWXYoLyS1NVI-478" vertex="1">
          <mxGeometry y="200" width="80" height="40" as="geometry" />
        </mxCell>
        <mxCell id="S7Eitos9PWXYoLyS1NVI-495" value="4" style="shape=partialRectangle;html=1;whiteSpace=wrap;connectable=0;overflow=hidden;fillColor=none;top=0;left=0;bottom=0;right=0;pointerEvents=1;" parent="S7Eitos9PWXYoLyS1NVI-494" vertex="1">
          <mxGeometry width="40" height="40" as="geometry">
            <mxRectangle width="40" height="40" as="alternateBounds" />
          </mxGeometry>
        </mxCell>
        <mxCell id="S7Eitos9PWXYoLyS1NVI-496" value="5" style="shape=partialRectangle;html=1;whiteSpace=wrap;connectable=0;overflow=hidden;fillColor=none;top=0;left=0;bottom=0;right=0;pointerEvents=1;" parent="S7Eitos9PWXYoLyS1NVI-494" vertex="1">
          <mxGeometry x="40" width="40" height="40" as="geometry">
            <mxRectangle width="40" height="40" as="alternateBounds" />
          </mxGeometry>
        </mxCell>
        <mxCell id="S7Eitos9PWXYoLyS1NVI-497" value="" style="shape=tableRow;horizontal=0;startSize=0;swimlaneHead=0;swimlaneBody=0;top=0;left=0;bottom=0;right=0;collapsible=0;dropTarget=0;fillColor=none;points=[[0,0.5],[1,0.5]];portConstraint=eastwest;" parent="S7Eitos9PWXYoLyS1NVI-478" vertex="1">
          <mxGeometry y="240" width="80" height="40" as="geometry" />
        </mxCell>
        <mxCell id="S7Eitos9PWXYoLyS1NVI-498" value="5" style="shape=partialRectangle;html=1;whiteSpace=wrap;connectable=0;overflow=hidden;fillColor=none;top=0;left=0;bottom=0;right=0;pointerEvents=1;" parent="S7Eitos9PWXYoLyS1NVI-497" vertex="1">
          <mxGeometry width="40" height="40" as="geometry">
            <mxRectangle width="40" height="40" as="alternateBounds" />
          </mxGeometry>
        </mxCell>
        <mxCell id="S7Eitos9PWXYoLyS1NVI-499" value="0" style="shape=partialRectangle;html=1;whiteSpace=wrap;connectable=0;overflow=hidden;fillColor=none;top=0;left=0;bottom=0;right=0;pointerEvents=1;" parent="S7Eitos9PWXYoLyS1NVI-497" vertex="1">
          <mxGeometry x="40" width="40" height="40" as="geometry">
            <mxRectangle width="40" height="40" as="alternateBounds" />
          </mxGeometry>
        </mxCell>
        <mxCell id="S7Eitos9PWXYoLyS1NVI-500" value="CA" style="text;html=1;align=center;verticalAlign=middle;resizable=0;points=[];autosize=1;strokeColor=none;fillColor=none;" parent="1" vertex="1">
          <mxGeometry x="1105" y="190" width="30" height="20" as="geometry" />
        </mxCell>
        <mxCell id="S7Eitos9PWXYoLyS1NVI-501" value="" style="shape=singleArrow;whiteSpace=wrap;html=1;fontColor=#FF0000;arrowWidth=0.25769230769231993;arrowSize=0.4076923076923151;" parent="1" vertex="1">
          <mxGeometry x="1100" y="210" width="40" height="20" as="geometry" />
        </mxCell>
        <mxCell id="S7Eitos9PWXYoLyS1NVI-502" value="" style="shape=table;startSize=0;container=1;collapsible=0;childLayout=tableLayout;" parent="1" vertex="1">
          <mxGeometry x="1161" y="80" width="80" height="280" as="geometry" />
        </mxCell>
        <mxCell id="S7Eitos9PWXYoLyS1NVI-503" value="" style="shape=tableRow;horizontal=0;startSize=0;swimlaneHead=0;swimlaneBody=0;top=0;left=0;bottom=0;right=0;collapsible=0;dropTarget=0;fillColor=none;points=[[0,0.5],[1,0.5]];portConstraint=eastwest;" parent="S7Eitos9PWXYoLyS1NVI-502" vertex="1">
          <mxGeometry width="80" height="40" as="geometry" />
        </mxCell>
        <mxCell id="S7Eitos9PWXYoLyS1NVI-504" value="Slot" style="shape=partialRectangle;html=1;whiteSpace=wrap;connectable=0;overflow=hidden;fillColor=none;top=0;left=0;bottom=0;right=0;pointerEvents=1;" parent="S7Eitos9PWXYoLyS1NVI-503" vertex="1">
          <mxGeometry width="40" height="40" as="geometry">
            <mxRectangle width="40" height="40" as="alternateBounds" />
          </mxGeometry>
        </mxCell>
        <mxCell id="S7Eitos9PWXYoLyS1NVI-505" value="Next" style="shape=partialRectangle;html=1;whiteSpace=wrap;connectable=0;overflow=hidden;fillColor=none;top=0;left=0;bottom=0;right=0;pointerEvents=1;" parent="S7Eitos9PWXYoLyS1NVI-503" vertex="1">
          <mxGeometry x="40" width="40" height="40" as="geometry">
            <mxRectangle width="40" height="40" as="alternateBounds" />
          </mxGeometry>
        </mxCell>
        <mxCell id="S7Eitos9PWXYoLyS1NVI-506" value="" style="shape=tableRow;horizontal=0;startSize=0;swimlaneHead=0;swimlaneBody=0;top=0;left=0;bottom=0;right=0;collapsible=0;dropTarget=0;fillColor=none;points=[[0,0.5],[1,0.5]];portConstraint=eastwest;" parent="S7Eitos9PWXYoLyS1NVI-502" vertex="1">
          <mxGeometry y="40" width="80" height="40" as="geometry" />
        </mxCell>
        <mxCell id="S7Eitos9PWXYoLyS1NVI-507" value="0" style="shape=partialRectangle;html=1;whiteSpace=wrap;connectable=0;overflow=hidden;fillColor=none;top=0;left=0;bottom=0;right=0;pointerEvents=1;" parent="S7Eitos9PWXYoLyS1NVI-506" vertex="1">
          <mxGeometry width="40" height="40" as="geometry">
            <mxRectangle width="40" height="40" as="alternateBounds" />
          </mxGeometry>
        </mxCell>
        <mxCell id="S7Eitos9PWXYoLyS1NVI-508" value="&lt;font color=&quot;#ff0000&quot;&gt;0&lt;/font&gt;" style="shape=partialRectangle;html=1;whiteSpace=wrap;connectable=0;overflow=hidden;fillColor=none;top=0;left=0;bottom=0;right=0;pointerEvents=1;" parent="S7Eitos9PWXYoLyS1NVI-506" vertex="1">
          <mxGeometry x="40" width="40" height="40" as="geometry">
            <mxRectangle width="40" height="40" as="alternateBounds" />
          </mxGeometry>
        </mxCell>
        <mxCell id="S7Eitos9PWXYoLyS1NVI-509" value="" style="shape=tableRow;horizontal=0;startSize=0;swimlaneHead=0;swimlaneBody=0;top=0;left=0;bottom=0;right=0;collapsible=0;dropTarget=0;fillColor=none;points=[[0,0.5],[1,0.5]];portConstraint=eastwest;" parent="S7Eitos9PWXYoLyS1NVI-502" vertex="1">
          <mxGeometry y="80" width="80" height="40" as="geometry" />
        </mxCell>
        <mxCell id="S7Eitos9PWXYoLyS1NVI-510" value="1" style="shape=partialRectangle;html=1;whiteSpace=wrap;connectable=0;overflow=hidden;fillColor=none;top=0;left=0;bottom=0;right=0;pointerEvents=1;" parent="S7Eitos9PWXYoLyS1NVI-509" vertex="1">
          <mxGeometry width="40" height="40" as="geometry">
            <mxRectangle width="40" height="40" as="alternateBounds" />
          </mxGeometry>
        </mxCell>
        <mxCell id="S7Eitos9PWXYoLyS1NVI-511" value="2" style="shape=partialRectangle;html=1;whiteSpace=wrap;connectable=0;overflow=hidden;fillColor=none;top=0;left=0;bottom=0;right=0;pointerEvents=1;" parent="S7Eitos9PWXYoLyS1NVI-509" vertex="1">
          <mxGeometry x="40" width="40" height="40" as="geometry">
            <mxRectangle width="40" height="40" as="alternateBounds" />
          </mxGeometry>
        </mxCell>
        <mxCell id="S7Eitos9PWXYoLyS1NVI-512" value="" style="shape=tableRow;horizontal=0;startSize=0;swimlaneHead=0;swimlaneBody=0;top=0;left=0;bottom=0;right=0;collapsible=0;dropTarget=0;fillColor=none;points=[[0,0.5],[1,0.5]];portConstraint=eastwest;" parent="S7Eitos9PWXYoLyS1NVI-502" vertex="1">
          <mxGeometry y="120" width="80" height="40" as="geometry" />
        </mxCell>
        <mxCell id="S7Eitos9PWXYoLyS1NVI-513" value="2" style="shape=partialRectangle;html=1;whiteSpace=wrap;connectable=0;overflow=hidden;fillColor=none;top=0;left=0;bottom=0;right=0;pointerEvents=1;" parent="S7Eitos9PWXYoLyS1NVI-512" vertex="1">
          <mxGeometry width="40" height="40" as="geometry">
            <mxRectangle width="40" height="40" as="alternateBounds" />
          </mxGeometry>
        </mxCell>
        <mxCell id="S7Eitos9PWXYoLyS1NVI-514" value="3" style="shape=partialRectangle;html=1;whiteSpace=wrap;connectable=0;overflow=hidden;fillColor=none;top=0;left=0;bottom=0;right=0;pointerEvents=1;" parent="S7Eitos9PWXYoLyS1NVI-512" vertex="1">
          <mxGeometry x="40" width="40" height="40" as="geometry">
            <mxRectangle width="40" height="40" as="alternateBounds" />
          </mxGeometry>
        </mxCell>
        <mxCell id="S7Eitos9PWXYoLyS1NVI-515" value="" style="shape=tableRow;horizontal=0;startSize=0;swimlaneHead=0;swimlaneBody=0;top=0;left=0;bottom=0;right=0;collapsible=0;dropTarget=0;fillColor=none;points=[[0,0.5],[1,0.5]];portConstraint=eastwest;" parent="S7Eitos9PWXYoLyS1NVI-502" vertex="1">
          <mxGeometry y="160" width="80" height="40" as="geometry" />
        </mxCell>
        <mxCell id="S7Eitos9PWXYoLyS1NVI-516" value="3" style="shape=partialRectangle;html=1;whiteSpace=wrap;connectable=0;overflow=hidden;fillColor=none;top=0;left=0;bottom=0;right=0;pointerEvents=1;" parent="S7Eitos9PWXYoLyS1NVI-515" vertex="1">
          <mxGeometry width="40" height="40" as="geometry">
            <mxRectangle width="40" height="40" as="alternateBounds" />
          </mxGeometry>
        </mxCell>
        <mxCell id="S7Eitos9PWXYoLyS1NVI-517" value="0" style="shape=partialRectangle;html=1;whiteSpace=wrap;connectable=0;overflow=hidden;fillColor=none;top=0;left=0;bottom=0;right=0;pointerEvents=1;" parent="S7Eitos9PWXYoLyS1NVI-515" vertex="1">
          <mxGeometry x="40" width="40" height="40" as="geometry">
            <mxRectangle width="40" height="40" as="alternateBounds" />
          </mxGeometry>
        </mxCell>
        <mxCell id="S7Eitos9PWXYoLyS1NVI-518" value="" style="shape=tableRow;horizontal=0;startSize=0;swimlaneHead=0;swimlaneBody=0;top=0;left=0;bottom=0;right=0;collapsible=0;dropTarget=0;fillColor=none;points=[[0,0.5],[1,0.5]];portConstraint=eastwest;" parent="S7Eitos9PWXYoLyS1NVI-502" vertex="1">
          <mxGeometry y="200" width="80" height="40" as="geometry" />
        </mxCell>
        <mxCell id="S7Eitos9PWXYoLyS1NVI-519" value="4" style="shape=partialRectangle;html=1;whiteSpace=wrap;connectable=0;overflow=hidden;fillColor=none;top=0;left=0;bottom=0;right=0;pointerEvents=1;" parent="S7Eitos9PWXYoLyS1NVI-518" vertex="1">
          <mxGeometry width="40" height="40" as="geometry">
            <mxRectangle width="40" height="40" as="alternateBounds" />
          </mxGeometry>
        </mxCell>
        <mxCell id="S7Eitos9PWXYoLyS1NVI-520" value="5" style="shape=partialRectangle;html=1;whiteSpace=wrap;connectable=0;overflow=hidden;fillColor=none;top=0;left=0;bottom=0;right=0;pointerEvents=1;" parent="S7Eitos9PWXYoLyS1NVI-518" vertex="1">
          <mxGeometry x="40" width="40" height="40" as="geometry">
            <mxRectangle width="40" height="40" as="alternateBounds" />
          </mxGeometry>
        </mxCell>
        <mxCell id="S7Eitos9PWXYoLyS1NVI-521" value="" style="shape=tableRow;horizontal=0;startSize=0;swimlaneHead=0;swimlaneBody=0;top=0;left=0;bottom=0;right=0;collapsible=0;dropTarget=0;fillColor=none;points=[[0,0.5],[1,0.5]];portConstraint=eastwest;" parent="S7Eitos9PWXYoLyS1NVI-502" vertex="1">
          <mxGeometry y="240" width="80" height="40" as="geometry" />
        </mxCell>
        <mxCell id="S7Eitos9PWXYoLyS1NVI-522" value="5" style="shape=partialRectangle;html=1;whiteSpace=wrap;connectable=0;overflow=hidden;fillColor=none;top=0;left=0;bottom=0;right=0;pointerEvents=1;" parent="S7Eitos9PWXYoLyS1NVI-521" vertex="1">
          <mxGeometry width="40" height="40" as="geometry">
            <mxRectangle width="40" height="40" as="alternateBounds" />
          </mxGeometry>
        </mxCell>
        <mxCell id="S7Eitos9PWXYoLyS1NVI-523" value="0" style="shape=partialRectangle;html=1;whiteSpace=wrap;connectable=0;overflow=hidden;fillColor=none;top=0;left=0;bottom=0;right=0;pointerEvents=1;" parent="S7Eitos9PWXYoLyS1NVI-521" vertex="1">
          <mxGeometry x="40" width="40" height="40" as="geometry">
            <mxRectangle width="40" height="40" as="alternateBounds" />
          </mxGeometry>
        </mxCell>
        <mxCell id="S7Eitos9PWXYoLyS1NVI-524" value="&lt;font color=&quot;#ffffff&quot;&gt;CF(2)&lt;/font&gt;" style="text;html=1;align=center;verticalAlign=middle;resizable=0;points=[];autosize=1;strokeColor=none;fillColor=none;fontColor=#FF0000;" parent="1" vertex="1">
          <mxGeometry x="1260" y="190" width="50" height="20" as="geometry" />
        </mxCell>
        <mxCell id="S7Eitos9PWXYoLyS1NVI-525" value="" style="shape=singleArrow;whiteSpace=wrap;html=1;fontColor=#FF0000;arrowWidth=0.25769230769231993;arrowSize=0.4076923076923151;" parent="1" vertex="1">
          <mxGeometry x="1265" y="210" width="40" height="20" as="geometry" />
        </mxCell>
        <mxCell id="S7Eitos9PWXYoLyS1NVI-526" value="" style="shape=table;startSize=0;container=1;collapsible=0;childLayout=tableLayout;" parent="1" vertex="1">
          <mxGeometry x="1320" y="80" width="80" height="280" as="geometry" />
        </mxCell>
        <mxCell id="S7Eitos9PWXYoLyS1NVI-527" value="" style="shape=tableRow;horizontal=0;startSize=0;swimlaneHead=0;swimlaneBody=0;top=0;left=0;bottom=0;right=0;collapsible=0;dropTarget=0;fillColor=none;points=[[0,0.5],[1,0.5]];portConstraint=eastwest;" parent="S7Eitos9PWXYoLyS1NVI-526" vertex="1">
          <mxGeometry width="80" height="40" as="geometry" />
        </mxCell>
        <mxCell id="S7Eitos9PWXYoLyS1NVI-528" value="Slot" style="shape=partialRectangle;html=1;whiteSpace=wrap;connectable=0;overflow=hidden;fillColor=none;top=0;left=0;bottom=0;right=0;pointerEvents=1;" parent="S7Eitos9PWXYoLyS1NVI-527" vertex="1">
          <mxGeometry width="40" height="40" as="geometry">
            <mxRectangle width="40" height="40" as="alternateBounds" />
          </mxGeometry>
        </mxCell>
        <mxCell id="S7Eitos9PWXYoLyS1NVI-529" value="Next" style="shape=partialRectangle;html=1;whiteSpace=wrap;connectable=0;overflow=hidden;fillColor=none;top=0;left=0;bottom=0;right=0;pointerEvents=1;" parent="S7Eitos9PWXYoLyS1NVI-527" vertex="1">
          <mxGeometry x="40" width="40" height="40" as="geometry">
            <mxRectangle width="40" height="40" as="alternateBounds" />
          </mxGeometry>
        </mxCell>
        <mxCell id="S7Eitos9PWXYoLyS1NVI-530" value="" style="shape=tableRow;horizontal=0;startSize=0;swimlaneHead=0;swimlaneBody=0;top=0;left=0;bottom=0;right=0;collapsible=0;dropTarget=0;fillColor=none;points=[[0,0.5],[1,0.5]];portConstraint=eastwest;" parent="S7Eitos9PWXYoLyS1NVI-526" vertex="1">
          <mxGeometry y="40" width="80" height="40" as="geometry" />
        </mxCell>
        <mxCell id="S7Eitos9PWXYoLyS1NVI-531" value="0" style="shape=partialRectangle;html=1;whiteSpace=wrap;connectable=0;overflow=hidden;fillColor=none;top=0;left=0;bottom=0;right=0;pointerEvents=1;" parent="S7Eitos9PWXYoLyS1NVI-530" vertex="1">
          <mxGeometry width="40" height="40" as="geometry">
            <mxRectangle width="40" height="40" as="alternateBounds" />
          </mxGeometry>
        </mxCell>
        <mxCell id="S7Eitos9PWXYoLyS1NVI-532" value="&lt;font color=&quot;#ff0000&quot;&gt;2&lt;/font&gt;" style="shape=partialRectangle;html=1;whiteSpace=wrap;connectable=0;overflow=hidden;fillColor=none;top=0;left=0;bottom=0;right=0;pointerEvents=1;" parent="S7Eitos9PWXYoLyS1NVI-530" vertex="1">
          <mxGeometry x="40" width="40" height="40" as="geometry">
            <mxRectangle width="40" height="40" as="alternateBounds" />
          </mxGeometry>
        </mxCell>
        <mxCell id="S7Eitos9PWXYoLyS1NVI-533" value="" style="shape=tableRow;horizontal=0;startSize=0;swimlaneHead=0;swimlaneBody=0;top=0;left=0;bottom=0;right=0;collapsible=0;dropTarget=0;fillColor=none;points=[[0,0.5],[1,0.5]];portConstraint=eastwest;" parent="S7Eitos9PWXYoLyS1NVI-526" vertex="1">
          <mxGeometry y="80" width="80" height="40" as="geometry" />
        </mxCell>
        <mxCell id="S7Eitos9PWXYoLyS1NVI-534" value="1" style="shape=partialRectangle;html=1;whiteSpace=wrap;connectable=0;overflow=hidden;fillColor=none;top=0;left=0;bottom=0;right=0;pointerEvents=1;" parent="S7Eitos9PWXYoLyS1NVI-533" vertex="1">
          <mxGeometry width="40" height="40" as="geometry">
            <mxRectangle width="40" height="40" as="alternateBounds" />
          </mxGeometry>
        </mxCell>
        <mxCell id="S7Eitos9PWXYoLyS1NVI-535" value="2" style="shape=partialRectangle;html=1;whiteSpace=wrap;connectable=0;overflow=hidden;fillColor=none;top=0;left=0;bottom=0;right=0;pointerEvents=1;" parent="S7Eitos9PWXYoLyS1NVI-533" vertex="1">
          <mxGeometry x="40" width="40" height="40" as="geometry">
            <mxRectangle width="40" height="40" as="alternateBounds" />
          </mxGeometry>
        </mxCell>
        <mxCell id="S7Eitos9PWXYoLyS1NVI-536" value="" style="shape=tableRow;horizontal=0;startSize=0;swimlaneHead=0;swimlaneBody=0;top=0;left=0;bottom=0;right=0;collapsible=0;dropTarget=0;fillColor=none;points=[[0,0.5],[1,0.5]];portConstraint=eastwest;" parent="S7Eitos9PWXYoLyS1NVI-526" vertex="1">
          <mxGeometry y="120" width="80" height="40" as="geometry" />
        </mxCell>
        <mxCell id="S7Eitos9PWXYoLyS1NVI-537" value="2" style="shape=partialRectangle;html=1;whiteSpace=wrap;connectable=0;overflow=hidden;fillColor=none;top=0;left=0;bottom=0;right=0;pointerEvents=1;" parent="S7Eitos9PWXYoLyS1NVI-536" vertex="1">
          <mxGeometry width="40" height="40" as="geometry">
            <mxRectangle width="40" height="40" as="alternateBounds" />
          </mxGeometry>
        </mxCell>
        <mxCell id="S7Eitos9PWXYoLyS1NVI-538" value="&lt;font color=&quot;#ff0000&quot;&gt;0&lt;/font&gt;" style="shape=partialRectangle;html=1;whiteSpace=wrap;connectable=0;overflow=hidden;fillColor=none;top=0;left=0;bottom=0;right=0;pointerEvents=1;" parent="S7Eitos9PWXYoLyS1NVI-536" vertex="1">
          <mxGeometry x="40" width="40" height="40" as="geometry">
            <mxRectangle width="40" height="40" as="alternateBounds" />
          </mxGeometry>
        </mxCell>
        <mxCell id="S7Eitos9PWXYoLyS1NVI-539" value="" style="shape=tableRow;horizontal=0;startSize=0;swimlaneHead=0;swimlaneBody=0;top=0;left=0;bottom=0;right=0;collapsible=0;dropTarget=0;fillColor=none;points=[[0,0.5],[1,0.5]];portConstraint=eastwest;" parent="S7Eitos9PWXYoLyS1NVI-526" vertex="1">
          <mxGeometry y="160" width="80" height="40" as="geometry" />
        </mxCell>
        <mxCell id="S7Eitos9PWXYoLyS1NVI-540" value="3" style="shape=partialRectangle;html=1;whiteSpace=wrap;connectable=0;overflow=hidden;fillColor=none;top=0;left=0;bottom=0;right=0;pointerEvents=1;" parent="S7Eitos9PWXYoLyS1NVI-539" vertex="1">
          <mxGeometry width="40" height="40" as="geometry">
            <mxRectangle width="40" height="40" as="alternateBounds" />
          </mxGeometry>
        </mxCell>
        <mxCell id="S7Eitos9PWXYoLyS1NVI-541" value="0" style="shape=partialRectangle;html=1;whiteSpace=wrap;connectable=0;overflow=hidden;fillColor=none;top=0;left=0;bottom=0;right=0;pointerEvents=1;" parent="S7Eitos9PWXYoLyS1NVI-539" vertex="1">
          <mxGeometry x="40" width="40" height="40" as="geometry">
            <mxRectangle width="40" height="40" as="alternateBounds" />
          </mxGeometry>
        </mxCell>
        <mxCell id="S7Eitos9PWXYoLyS1NVI-542" value="" style="shape=tableRow;horizontal=0;startSize=0;swimlaneHead=0;swimlaneBody=0;top=0;left=0;bottom=0;right=0;collapsible=0;dropTarget=0;fillColor=none;points=[[0,0.5],[1,0.5]];portConstraint=eastwest;" parent="S7Eitos9PWXYoLyS1NVI-526" vertex="1">
          <mxGeometry y="200" width="80" height="40" as="geometry" />
        </mxCell>
        <mxCell id="S7Eitos9PWXYoLyS1NVI-543" value="4" style="shape=partialRectangle;html=1;whiteSpace=wrap;connectable=0;overflow=hidden;fillColor=none;top=0;left=0;bottom=0;right=0;pointerEvents=1;" parent="S7Eitos9PWXYoLyS1NVI-542" vertex="1">
          <mxGeometry width="40" height="40" as="geometry">
            <mxRectangle width="40" height="40" as="alternateBounds" />
          </mxGeometry>
        </mxCell>
        <mxCell id="S7Eitos9PWXYoLyS1NVI-544" value="5" style="shape=partialRectangle;html=1;whiteSpace=wrap;connectable=0;overflow=hidden;fillColor=none;top=0;left=0;bottom=0;right=0;pointerEvents=1;" parent="S7Eitos9PWXYoLyS1NVI-542" vertex="1">
          <mxGeometry x="40" width="40" height="40" as="geometry">
            <mxRectangle width="40" height="40" as="alternateBounds" />
          </mxGeometry>
        </mxCell>
        <mxCell id="S7Eitos9PWXYoLyS1NVI-545" value="" style="shape=tableRow;horizontal=0;startSize=0;swimlaneHead=0;swimlaneBody=0;top=0;left=0;bottom=0;right=0;collapsible=0;dropTarget=0;fillColor=none;points=[[0,0.5],[1,0.5]];portConstraint=eastwest;" parent="S7Eitos9PWXYoLyS1NVI-526" vertex="1">
          <mxGeometry y="240" width="80" height="40" as="geometry" />
        </mxCell>
        <mxCell id="S7Eitos9PWXYoLyS1NVI-546" value="5" style="shape=partialRectangle;html=1;whiteSpace=wrap;connectable=0;overflow=hidden;fillColor=none;top=0;left=0;bottom=0;right=0;pointerEvents=1;" parent="S7Eitos9PWXYoLyS1NVI-545" vertex="1">
          <mxGeometry width="40" height="40" as="geometry">
            <mxRectangle width="40" height="40" as="alternateBounds" />
          </mxGeometry>
        </mxCell>
        <mxCell id="S7Eitos9PWXYoLyS1NVI-547" value="0" style="shape=partialRectangle;html=1;whiteSpace=wrap;connectable=0;overflow=hidden;fillColor=none;top=0;left=0;bottom=0;right=0;pointerEvents=1;" parent="S7Eitos9PWXYoLyS1NVI-545" vertex="1">
          <mxGeometry x="40" width="40" height="40" as="geometry">
            <mxRectangle width="40" height="40" as="alternateBounds" />
          </mxGeometry>
        </mxCell>
      </root>
    </mxGraphModel>
  </diagram>
</mxfile>
